<svg width="80" height="80" viewBox="0 0 80 80" fill="none" xmlns="http://www.w3.org/2000/svg">
<rect width="80" height="80" rx="40" fill="#96A94A"/>
<path d="M40.4475 13C40.0509 13.0015 39.671 13.1598 39.3906 13.4402C39.1102 13.7206 38.952 14.1005 38.9504 14.4971V19.8807C38.9496 20.078 38.9878 20.2736 39.0626 20.4563C39.1374 20.6389 39.2474 20.805 39.3865 20.9451C39.5255 21.0852 39.6907 21.1966 39.8728 21.2728C40.0548 21.3491 40.2501 21.3887 40.4475 21.3895C40.6451 21.3891 40.8407 21.3497 41.0231 21.2737C41.2055 21.1976 41.3711 21.0863 41.5104 20.9462C41.6497 20.806 41.76 20.6398 41.8351 20.4569C41.9101 20.2741 41.9483 20.0783 41.9475 19.8807V14.4971C41.9459 14.1 41.7873 13.7197 41.5063 13.4392C41.2252 13.1587 40.8446 13.0008 40.4475 13ZM28.6881 17.8699C28.4899 17.8703 28.2936 17.9099 28.1108 17.9865C27.9279 18.0631 27.762 18.1751 27.6226 18.3161C27.3426 18.5977 27.1854 18.9787 27.1854 19.3758C27.1854 19.7729 27.3426 20.1539 27.6226 20.4355L31.4298 24.2398C31.7114 24.5198 32.0924 24.6769 32.4895 24.6769C32.8866 24.6769 33.2676 24.5198 33.5492 24.2398C33.8292 23.9582 33.9864 23.5772 33.9864 23.1801C33.9864 22.783 33.8292 22.402 33.5492 22.1204L29.7419 18.3161C29.4633 18.0342 29.0845 17.8738 28.6881 17.8699ZM52.2098 17.8699C51.8134 17.8738 51.4346 18.0342 51.1559 18.3161L47.3487 22.1204C47.0687 22.402 46.9115 22.783 46.9115 23.1801C46.9115 23.5772 47.0687 23.9582 47.3487 24.2398C47.6303 24.5198 48.0113 24.6769 48.4084 24.6769C48.8055 24.6769 49.1865 24.5198 49.4681 24.2398L53.2753 20.4355C53.5553 20.1539 53.7125 19.7729 53.7125 19.3758C53.7125 18.9787 53.5553 18.5977 53.2753 18.3161C53.1359 18.1751 52.97 18.0631 52.7871 17.9865C52.6042 17.9099 52.408 17.8703 52.2098 17.8699ZM23.783 26.2711C20.5197 26.3548 17.8711 29.0578 17.8711 32.3386C17.8711 35.6715 20.6072 38.3974 23.9415 38.3974C27.2759 38.3974 30.0208 35.6715 30.0208 32.3386C30.0208 29.0058 27.2759 26.2711 23.9415 26.2711C23.8894 26.2711 23.8348 26.2698 23.783 26.2711ZM56.8125 26.2711C53.5492 26.3548 50.9006 29.0578 50.9006 32.3386C50.9006 35.6715 53.6337 38.3974 56.9681 38.3974C60.3025 38.3974 63.0386 35.6715 63.0386 32.3386C63.0386 29.0058 60.3025 26.2711 56.9681 26.2711C56.9159 26.2711 56.8642 26.2698 56.8125 26.2711ZM40.4475 26.5911C36.5722 26.5911 33.3819 29.7314 33.3819 33.5921C33.3819 37.4527 36.5722 40.6048 40.4475 40.6048C44.3227 40.6048 47.516 37.4527 47.516 33.5921C47.516 29.7314 44.3227 26.5911 40.4475 26.5911ZM23.9415 29.277C25.6542 29.277 27.012 30.6331 27.012 32.3386C27.012 34.0442 25.6542 35.3886 23.9415 35.3886C22.2289 35.3886 20.877 34.0442 20.877 32.3386C20.877 30.6331 22.2289 29.277 23.9415 29.277ZM56.9681 29.277C58.6807 29.277 60.0298 30.6331 60.0298 32.3386C60.0298 34.0442 58.6807 35.3886 56.9681 35.3886C55.2555 35.3886 53.9064 34.0442 53.9064 32.3386C53.9064 30.6331 55.2555 29.277 56.9681 29.277ZM40.4475 29.597C42.7147 29.597 44.5101 31.3726 44.5101 33.5921C44.5101 35.8116 42.7147 37.596 40.4475 37.596C38.1802 37.596 36.3878 35.8116 36.3878 33.5921C36.3878 31.3726 38.1802 29.597 40.4475 29.597ZM23.9298 39.4512C18.9563 39.4512 14.8975 43.4846 14.8975 48.4483V52.8074C14.896 53.206 15.0528 53.5889 15.3336 53.8718C15.6143 54.1548 15.996 54.3146 16.3946 54.3162H27.1118C27.3094 54.3158 27.505 54.2765 27.6874 54.2004C27.8698 54.1243 28.0354 54.013 28.1747 53.8729C28.3141 53.7328 28.4244 53.5665 28.4994 53.3837C28.5744 53.2008 28.6126 53.005 28.6118 52.8074C28.6103 52.4103 28.4516 52.03 28.1706 51.7495C27.8895 51.469 27.5089 51.3111 27.1118 51.3103H17.9034V48.4483C17.9034 45.1042 20.5635 42.4571 23.9298 42.4571C25.9152 42.4571 27.6471 43.3875 28.7439 44.8318C28.9848 45.1463 29.3402 45.353 29.7327 45.4069C30.1252 45.4607 30.5231 45.3575 30.8398 45.1195C30.9974 45.0003 31.13 44.8512 31.23 44.6807C31.3299 44.5102 31.3952 44.3217 31.4222 44.1259C31.4492 43.9302 31.4373 43.731 31.3873 43.5398C31.3372 43.3487 31.2499 43.1692 31.1304 43.0119C29.4834 40.843 26.8631 39.4512 23.9298 39.4512ZM56.9681 39.4512C54.0348 39.4512 51.4145 40.8429 49.7675 43.0119C49.6473 43.1685 49.5593 43.3474 49.5083 43.5381C49.4573 43.7288 49.4443 43.9277 49.4702 44.1235C49.4961 44.3192 49.5604 44.5079 49.6592 44.6788C49.758 44.8497 49.8896 44.9995 50.0463 45.1195C50.2036 45.2392 50.3828 45.3266 50.5739 45.3769C50.7649 45.4272 50.964 45.4394 51.1598 45.4127C51.3556 45.3859 51.5441 45.3209 51.7147 45.2212C51.8853 45.1216 52.0346 44.9893 52.154 44.8318C53.2508 43.3875 54.9827 42.4571 56.9681 42.4571C60.3344 42.4571 62.9916 45.1042 62.9916 48.4483V51.3103H53.7832C53.5858 51.3096 53.3902 51.3477 53.2075 51.4225C53.0249 51.4973 52.8588 51.6074 52.7187 51.7464C52.5786 51.8854 52.4672 52.0506 52.391 52.2327C52.3147 52.4148 52.2751 52.61 52.2743 52.8074C52.2736 53.0058 52.3121 53.2023 52.3876 53.3857C52.4632 53.5691 52.5743 53.7358 52.7145 53.876C52.8548 54.0163 53.0214 54.1274 53.2048 54.2029C53.3882 54.2785 53.5848 54.317 53.7832 54.3162H64.4916C64.69 54.317 64.8865 54.2785 65.0699 54.2029C65.2533 54.1273 65.4199 54.0162 65.5602 53.876C65.7004 53.7357 65.8115 53.5691 65.8871 53.3857C65.9626 53.2023 66.0012 53.0058 66.0004 52.8074V48.4483C66.0004 43.4846 61.9416 39.4512 56.9681 39.4512ZM40.4475 41.6469C38.0094 41.6469 35.7632 42.473 33.9778 43.8602C33.2517 44.4248 32.5974 45.0863 32.0433 45.8182C31.9928 45.8848 31.9424 45.95 31.8936 46.0178C31.8447 46.0858 31.7969 46.1543 31.7497 46.2234C31.7025 46.2923 31.6573 46.3616 31.6118 46.4318C31.5666 46.5012 31.5202 46.5726 31.4768 46.6432C31.4333 46.7138 31.3895 46.7889 31.3477 46.8605C31.3059 46.9322 31.2644 47.0051 31.2244 47.0778C31.1843 47.1505 31.1424 47.2271 31.1041 47.3009C31.0657 47.3747 31.0291 47.4523 30.9925 47.527C30.956 47.6019 30.9187 47.6803 30.8839 47.756C30.8492 47.8318 30.8141 47.9083 30.7811 47.9851C30.7482 48.0619 30.7152 48.1422 30.6843 48.2199C30.6532 48.2977 30.6225 48.3792 30.5932 48.4578C30.5641 48.5364 30.5325 48.619 30.5051 48.6986C30.4779 48.7781 30.4512 48.859 30.4259 48.9394C30.4005 49.0197 30.3759 49.1048 30.3526 49.186C30.3293 49.2672 30.3065 49.3507 30.2851 49.4326C30.2637 49.5147 30.2429 49.5994 30.2235 49.6822C30.223 49.6837 30.2239 49.6867 30.2235 49.6885C30.2044 49.7704 30.1849 49.8525 30.1677 49.9351C30.1673 49.9366 30.1681 49.9396 30.1677 49.9413C30.1505 50.024 30.1328 50.1075 30.1178 50.1908C30.1027 50.2751 30.087 50.3614 30.0738 50.4463C30.0735 50.4478 30.0741 50.4508 30.0738 50.4525C30.0603 50.5366 30.0494 50.6203 30.0386 50.705C30.0384 50.7065 30.0389 50.7095 30.0386 50.7112C30.0167 50.8825 29.9963 51.0569 29.9829 51.2308C29.9768 51.3177 29.9724 51.4075 29.9678 51.4951C29.9677 51.4966 29.9679 51.4996 29.9678 51.5013C29.9633 51.5879 29.9588 51.6754 29.9558 51.7626C29.9543 51.8506 29.9528 51.9411 29.9528 52.0298C29.9528 52.0313 29.9528 52.0343 29.9528 52.036V57.1935V57.1998C29.9536 57.2134 29.9546 57.2271 29.9558 57.2407C29.9592 57.3998 29.9879 57.5574 30.0408 57.7075C30.0418 57.7095 30.0428 57.7116 30.0438 57.7137C30.0734 57.7939 30.1097 57.8715 30.1525 57.9456C30.1515 57.9446 30.1535 57.9466 30.1525 57.9456C30.2834 58.1736 30.4749 58.3662 30.7021 58.4986C30.9292 58.631 31.1871 58.7014 31.45 58.703H49.4354H49.4475C49.845 58.7014 50.2258 58.5424 50.5064 58.2607C50.787 57.979 50.9445 57.5976 50.9446 57.2C50.9446 57.198 50.9446 57.1959 50.9446 57.1938V52.0362V52.03C50.9445 51.9423 50.9438 51.85 50.9415 51.7628C50.94 51.6756 50.934 51.5882 50.9295 51.5016C50.9294 51.5001 50.9296 51.4971 50.9295 51.4954C50.9291 51.4863 50.9265 51.4777 50.9265 51.4687C50.9175 51.3005 50.9055 51.1326 50.8883 50.9667C50.8793 50.8813 50.8699 50.796 50.859 50.7113C50.8588 50.7098 50.8593 50.7068 50.859 50.705C50.856 50.6812 50.85 50.6585 50.847 50.6345C50.8268 50.4872 50.8058 50.3365 50.7795 50.1913C50.7644 50.108 50.7467 50.0244 50.7296 49.9418C50.7292 49.9403 50.73 49.9372 50.7296 49.9355C50.7125 49.8529 50.6929 49.7708 50.6738 49.6889C50.6734 49.6874 50.6743 49.6844 50.6738 49.6827C50.6545 49.5999 50.6336 49.5181 50.6122 49.4361C50.5909 49.3542 50.568 49.2706 50.5447 49.1895C50.5213 49.1083 50.4966 49.0232 50.4714 48.9428C50.4462 48.8627 50.4192 48.7813 50.3922 48.702C50.3747 48.6515 50.3546 48.5968 50.3363 48.5464C50.3258 48.518 50.3145 48.4866 50.304 48.4583C50.2748 48.3797 50.244 48.3012 50.213 48.2235C50.1819 48.1458 50.149 48.0654 50.1161 47.9886C50.0832 47.9118 50.048 47.8355 50.0133 47.7596C49.9786 47.6839 49.9412 47.6054 49.9046 47.5306C49.8681 47.4557 49.8314 47.3783 49.7931 47.3045C49.7548 47.2307 49.7129 47.154 49.6727 47.0813C49.6326 47.0086 49.5913 46.9357 49.5495 46.8641C49.5077 46.7924 49.4638 46.7174 49.4204 46.6467C49.3769 46.5761 49.3305 46.5047 49.2854 46.4353C49.2399 46.3651 49.1946 46.2928 49.1475 46.2239C49.1002 46.1549 49.0525 46.0862 49.0036 46.0184C48.9548 45.9507 48.9044 45.8854 48.8539 45.8188C48.5512 45.419 48.2183 45.041 47.8618 44.6887C47.7429 44.5714 47.6221 44.4568 47.4978 44.3452C47.249 44.1218 46.9894 43.9105 46.7199 43.7112C46.6525 43.6612 46.586 43.6126 46.5173 43.5643C44.802 42.358 42.7049 41.6469 40.4475 41.6469ZM40.4475 44.6528C43.0629 44.6528 45.3349 45.9335 46.6706 47.8935C46.7369 47.9909 46.8027 48.0923 46.8643 48.1929C46.8948 48.2429 46.926 48.2948 46.9553 48.3455C46.9846 48.3961 47.0152 48.4496 47.0433 48.5011C47.0715 48.5528 47.1015 48.6074 47.1284 48.6597C47.1827 48.765 47.2348 48.8743 47.284 48.9825C47.3084 49.0359 47.3343 49.0926 47.3573 49.1469C47.3805 49.2015 47.403 49.2592 47.4248 49.3143C47.469 49.4261 47.5093 49.5402 47.5481 49.6548C47.5669 49.7104 47.5864 49.766 47.6038 49.8221C47.6222 49.8808 47.6397 49.9417 47.6567 50.0012C47.6731 50.0587 47.6888 50.1161 47.7036 50.1743C47.7241 50.2539 47.7445 50.3375 47.7624 50.418C47.7817 50.5051 47.7991 50.5941 47.8152 50.6822C47.8167 50.693 47.8197 50.7067 47.8212 50.7174C47.8645 50.9607 47.8962 51.2089 47.9151 51.4601C47.9196 51.5209 47.9242 51.5838 47.9272 51.6451C47.9302 51.7074 47.9347 51.7761 47.9362 51.8389C47.9377 51.9007 47.9392 51.9645 47.9392 52.0267V52.033V55.6876H32.9596V52.0271C32.9596 51.9649 32.961 51.898 32.9626 51.8363C32.9656 51.7079 32.9731 51.5813 32.9832 51.4547C32.9877 51.3938 32.9922 51.3331 32.9982 51.2727C32.9984 51.2712 32.998 51.2682 32.9982 51.2664C33.0042 51.206 33.0117 51.1473 33.0188 51.0874C33.019 51.0859 33.0185 51.0829 33.0188 51.0812C33.0263 51.0212 33.0362 50.9615 33.0453 50.9021C33.0455 50.9006 33.045 50.8976 33.0453 50.8959C33.0543 50.8354 33.0669 50.7767 33.0776 50.7168C33.0881 50.657 33.0977 50.594 33.1099 50.5348C33.1219 50.4763 33.1377 50.4135 33.1509 50.3556C33.1784 50.2361 33.2086 50.1145 33.242 49.9975C33.3083 49.7643 33.3858 49.5335 33.4739 49.3106C33.4957 49.2555 33.5184 49.2005 33.5414 49.1462C33.5645 49.0916 33.5904 49.0354 33.6147 48.9817C33.6639 48.8735 33.716 48.7612 33.7703 48.6558C33.7972 48.6036 33.8273 48.5518 33.8554 48.5003C33.8835 48.4486 33.9141 48.3953 33.9434 48.3446C33.9727 48.2941 34.0038 48.242 34.0344 48.1919C34.096 48.0912 34.1588 47.9869 34.2252 47.8895C35.5609 45.9295 37.8321 44.6528 40.4475 44.6528Z" fill="white"/>
</svg>
