<svg width="214" height="214" viewBox="0 0 214 214" fill="none" xmlns="http://www.w3.org/2000/svg">
<circle cx="107" cy="107" r="107" fill="#95A84A"/>
<path fill-rule="evenodd" clip-rule="evenodd" d="M95.5139 122.958L106.505 141.999L117.496 122.949L128.487 103.908H116.476C116.034 103.909 115.607 103.747 115.277 103.455C114.946 103.162 114.734 102.758 114.681 102.32L106.297 34L97.9188 102.266C97.8778 102.715 97.6697 103.133 97.3356 103.437C97.0016 103.741 96.5658 103.908 96.1143 103.906H84.5229L95.5139 122.945V122.958ZM93.5454 126.759L97.5809 133.749C91.7879 134.161 86.0783 135.362 80.6104 137.319C75.2953 139.399 72.1047 142.273 72.1047 145.607C72.1047 149.365 76.2337 152.567 82.9087 154.706C90.5749 156.917 98.5271 157.978 106.505 157.853C114.483 157.977 122.435 156.915 130.101 154.703C136.776 152.57 140.905 149.362 140.905 145.603C140.905 142.268 137.713 139.394 132.393 137.312C126.928 135.357 121.222 134.157 115.432 133.746L119.465 126.756C131.896 127.832 142.71 130.414 150.402 133.946C157.659 137.28 162.003 141.345 162.003 145.603C162.003 150.621 156.042 155.336 146.404 158.902C136.222 162.675 122.115 165 106.5 165C90.8846 165 76.7783 162.671 66.596 158.902C56.9584 155.336 50.9969 150.621 50.9969 145.603C50.9969 141.338 55.3392 137.281 62.5933 133.956C70.287 130.423 81.1042 127.839 93.5404 126.763L93.5454 126.759ZM104.889 146.409C105.034 146.7 105.256 146.947 105.53 147.123C105.804 147.299 106.121 147.398 106.447 147.408C106.772 147.418 107.095 147.341 107.38 147.182C107.665 147.024 107.901 146.792 108.065 146.51L113.436 137.211C119.454 137.51 125.396 138.677 131.081 140.675C134.96 142.194 137.29 143.923 137.29 145.597C137.29 147.605 134.12 149.624 129 151.264C121.69 153.361 114.109 154.363 106.505 154.237C98.9011 154.365 91.3202 153.366 84.0094 151.271C78.8896 149.631 75.7202 147.611 75.7202 145.603C75.7202 143.923 78.0464 142.194 81.9244 140.682C87.6113 138.681 93.5576 137.511 99.5789 137.211L104.889 146.409Z" fill="white"/>
</svg>
