<svg width="214" height="214" viewBox="0 0 214 214" fill="none" xmlns="http://www.w3.org/2000/svg">
<circle cx="107" cy="107" r="107" fill="#95A84A"/>
<path d="M106.568 71.1703C111.844 71.1353 116.093 66.8298 116.058 61.5536C116.023 56.2774 111.717 52.0286 106.441 52.0636C101.165 52.0986 96.9162 56.4041 96.9512 61.6803C96.9862 66.9565 101.292 71.2053 106.568 71.1703Z" fill="white"/>
<path d="M68.2857 61.621L60.6429 52.0674L53 61.621H56.8214C56.7545 62.2561 56.7545 62.8965 56.8214 63.5317C56.8214 66.0654 57.828 68.4954 59.6196 70.2871C61.4112 72.0787 63.8412 73.0852 66.375 73.0852C67.6885 73.0838 68.9883 72.8174 70.1964 72.3018C68.4905 71.5573 67.0392 70.3307 66.0209 68.7726C65.0025 67.2146 64.4615 65.393 64.4643 63.5317C64.4564 62.8886 64.527 62.2469 64.6745 61.621H68.2857Z" fill="white"/>
<path d="M152.357 52.0674L144.714 61.621H148.326C148.473 62.2469 148.544 62.8886 148.536 63.5317C148.538 65.393 147.997 67.2146 146.979 68.7726C145.961 70.3307 144.51 71.5573 142.804 72.3018C144.012 72.8174 145.311 73.0838 146.625 73.0852C147.88 73.0852 149.122 72.8381 150.281 72.358C151.44 71.8779 152.493 71.1742 153.38 70.2871C154.268 69.3999 154.971 68.3468 155.451 67.1877C155.931 66.0286 156.179 64.7863 156.179 63.5317C156.246 62.8965 156.246 62.2561 156.179 61.621H160L152.357 52.0674Z" fill="white"/>
<path d="M158.089 102.701C158.089 97.2941 152.147 92.5173 141.332 89.1354L143.568 87.2247C143.923 86.8698 144.205 86.4483 144.397 85.9844C144.59 85.5205 144.689 85.0232 144.689 84.521C144.689 84.0188 144.59 83.5215 144.397 83.0576C144.205 82.5937 143.923 82.1722 143.568 81.8173C142.817 81.098 141.818 80.6964 140.778 80.6964C139.739 80.6964 138.739 81.098 137.989 81.8173L126.18 90.2818C125.674 86.5859 124.042 83.1356 121.505 80.4005C118.968 77.6654 115.65 75.7784 112.003 74.9961L106.5 90.2818L100.997 74.9961C97.3497 75.7784 94.0318 77.6654 91.495 80.4005C88.9582 83.1356 87.3257 86.5859 86.8196 90.2818L75.0114 81.8556C74.2609 81.1362 73.2614 80.7346 72.2218 80.7346C71.1821 80.7346 70.1827 81.1362 69.4321 81.8556C69.0768 82.2105 68.795 82.6319 68.6027 83.0958C68.4103 83.5598 68.3114 84.057 68.3114 84.5592C68.3114 85.0614 68.4103 85.5587 68.6027 86.0226C68.795 86.4865 69.0768 86.908 69.4321 87.2629L71.6677 89.1736C60.853 92.5173 54.9107 97.2941 54.9107 102.701C54.9107 106.657 58.0443 110.23 63.9675 113.21C58.0443 116.191 54.9107 119.764 54.9107 123.719C54.9107 127.674 58.0443 131.248 63.9675 134.228C58.0443 137.209 54.9107 140.782 54.9107 144.737C54.9107 155.036 75.5273 161.093 95.9337 162.526L97.8444 162.641H98.7234C101.15 162.774 103.691 162.832 106.5 162.832C109.309 162.832 111.85 162.832 114.315 162.641H115.156L117.066 162.526C137.473 161.093 158.089 155.036 158.089 144.737C158.089 140.782 154.956 137.209 149.032 134.228C154.956 131.248 158.089 127.674 158.089 123.719C158.089 119.764 154.956 116.191 149.032 113.21C154.956 110.23 158.089 106.657 158.089 102.701ZM93.125 116.42C86.921 115.899 80.7759 114.825 74.763 113.21C80.7759 111.596 86.921 110.521 93.125 110V116.42ZM93.125 137.438C86.921 136.917 80.7759 135.843 74.763 134.228C80.7759 132.614 86.921 131.539 93.125 131.018V137.438ZM102.564 130.407C105.124 130.407 107.761 130.407 110.321 130.407V138.05C107.761 138.05 105.143 138.05 102.545 138.05L102.564 130.407ZM119.875 130.961C126.081 131.501 132.226 132.594 138.237 134.228C132.226 135.852 126.08 136.927 119.875 137.438V130.961ZM110.436 121.809V126.585C107.837 126.585 105.162 126.585 102.564 126.585V121.809C102.576 121.488 102.614 121.168 102.679 120.853H103.347H106.5H109.672H110.321C110.386 121.168 110.424 121.488 110.436 121.809ZM119.875 110C126.079 110.521 132.224 111.596 138.237 113.21C132.224 114.825 126.079 115.899 119.875 116.42V110ZM58.7321 102.701C58.7321 99.1093 64.5598 95.1732 74.0178 92.4218C74.3756 92.3105 74.6896 92.09 74.9159 91.7913L86.8196 101.746L93.125 97.9247V106.179H92.953C84.69 106.805 76.5413 108.487 68.7061 111.185C62.3625 108.625 58.7321 105.568 58.7321 102.701ZM58.7321 123.719C58.7321 120.853 62.3625 117.796 68.7061 115.255C76.5419 117.95 84.6903 119.633 92.953 120.261H93.125V127.197H92.953C84.69 127.823 76.5413 129.505 68.7061 132.203C62.3625 129.643 58.7321 126.585 58.7321 123.719ZM58.7321 144.737C58.7321 141.871 62.3625 138.814 68.7061 136.273C76.5419 138.968 84.6903 140.651 92.953 141.279H93.125V155.246C93.1335 156.4 93.422 157.534 93.9657 158.552C71.8778 156.622 58.7321 150.144 58.7321 144.737ZM101.589 159.068C102.22 158.252 102.563 157.251 102.564 156.221V141.871C103.863 141.871 105.182 141.871 106.5 141.871C107.818 141.871 109.137 141.871 110.436 141.871V156.201C110.433 157.239 110.776 158.247 111.411 159.068C109.844 159.068 108.239 159.068 106.5 159.068C104.761 159.068 103.156 159.068 101.589 159.068ZM154.268 144.737C154.268 150.125 141.141 156.603 119.034 158.513C119.569 157.506 119.857 156.386 119.875 155.246V141.279H120.047C128.31 140.653 136.459 138.97 144.294 136.273C150.637 138.814 154.268 141.871 154.268 144.737ZM154.268 123.719C154.268 126.585 150.637 129.643 144.294 132.184C136.458 129.488 128.31 127.806 120.047 127.178H119.875V120.261H120.047C128.31 119.635 136.459 117.953 144.294 115.255C150.637 117.796 154.268 120.853 154.268 123.719ZM144.294 111.166C136.458 108.47 128.31 106.788 120.047 106.16H119.875V97.9247L126.18 101.746L138.141 91.7913C138.368 92.09 138.682 92.3105 139.039 92.4218C148.44 95.1732 154.325 99.1093 154.325 102.701C154.268 105.568 150.637 108.625 144.294 111.166Z" fill="white"/>
</svg>
