<svg width="214" height="214" viewBox="0 0 214 214" fill="none" xmlns="http://www.w3.org/2000/svg">
<circle cx="107" cy="107" r="107" fill="#95A84A"/>
<path d="M104.799 121.507H108.568V149.792H104.799V121.507Z" fill="white"/>
<path d="M64.5872 116.522H80.4082C76.6829 111.258 74.4745 104.838 74.4745 97.8959C74.4745 80.0651 88.8966 65.6131 106.691 65.6131C124.486 65.6131 138.908 80.0649 138.908 97.8959C138.908 104.846 136.692 111.258 132.974 116.522H148.795C149.627 114.726 150.371 112.878 150.967 110.964L168.209 107.4V91.1082L152.086 88.2148C151.048 83.1497 149.126 78.4086 146.542 74.0944L156.658 56.0574L144.702 45.3015L129.72 57.633C126.061 55.5495 122.086 53.9667 117.889 52.9286L114.341 34.8916H98.4315L95.3394 52.9729C90.3111 54.2318 85.6067 56.2711 81.3811 59.0097L65.2876 48.8281L54.4139 60.7252L65.6999 76.075C63.6681 79.9032 62.1514 84.0408 61.2753 88.4065L45.1891 91.7268V108.019L62.4826 111.118C63.0568 112.988 63.7774 114.784 64.5872 116.522Z" fill="white"/>
<path d="M149.988 118.408H129.322L131.428 115.433C135.087 110.265 137.023 104.199 137.023 97.8969C137.023 81.1336 123.418 67.4988 106.691 67.4988C89.964 67.4988 76.3588 81.1334 76.3588 97.8969C76.3588 104.206 78.295 110.273 81.9465 115.433L84.0521 118.408H63.379L62.871 117.318C62.1422 115.757 61.5385 114.263 61.0231 112.79L43.2805 109.61L43.2879 90.2034L59.6758 86.8168C60.5077 83.1799 61.7814 79.6388 63.4746 76.2522L51.9676 60.5931L64.9469 46.3843L81.3715 56.7721C85.1777 54.4456 89.3004 52.6567 93.6734 51.4494L96.8245 33L115.884 33.0147L119.506 51.4125C123.003 52.3622 126.353 53.6946 129.511 55.3733L144.758 42.8285L159.033 55.6752L148.704 74.0877C150.972 78.0779 152.628 82.2744 153.644 86.5884L170.084 89.5332V108.94L152.407 112.591C151.877 114.13 151.252 115.691 150.493 117.318L149.988 118.408ZM136.39 114.638H147.566C148.199 113.188 148.722 111.789 149.163 110.398L149.495 109.338L166.317 105.863V92.6771L150.489 89.8427L150.231 88.5912C149.267 83.9015 147.478 79.3445 144.916 75.0597L144.356 74.1247L154.273 56.4484L144.65 47.7906L129.919 59.9159L128.793 59.2754C125.266 57.2729 121.445 55.749 117.44 54.7625L116.277 54.4754L112.795 36.7771H100.022L96.9959 54.4975L95.8033 54.7919C90.9885 55.992 86.4829 57.9429 82.4116 60.5785L81.3957 61.2337L65.6114 51.2507L56.8507 60.8434L67.9232 75.8988L67.3637 76.9443C65.3685 80.6989 63.9403 84.6745 63.1158 88.7676L62.8728 89.9897L47.0665 93.2512V106.437L63.9256 109.463L64.2716 110.552C64.6913 111.885 65.1992 113.232 65.8103 114.623H76.9859C74.1001 109.514 72.5908 103.794 72.5908 97.8821C72.5908 79.0426 87.8892 63.7146 106.692 63.7146C125.495 63.7146 140.794 79.0424 140.794 97.8821C140.794 103.808 139.276 109.536 136.39 114.638Z" fill="white"/>
<path d="M103.527 162.403V176.075C103.527 177.827 104.94 179.24 106.692 179.24C108.437 179.24 109.858 177.827 109.858 176.075V162.403H103.527Z" fill="white"/>
<path d="M106.691 181.118C103.908 181.118 101.641 178.851 101.641 176.068V160.512H111.734V176.068C111.734 178.858 109.474 181.118 106.691 181.118ZM105.41 164.288V176.075C105.41 176.782 105.984 177.356 106.691 177.356C107.398 177.356 107.972 176.782 107.972 176.075V164.288H105.41Z" fill="white"/>
<path d="M109.85 156.984V152.95C109.85 151.198 108.429 149.784 106.684 149.784C104.932 149.784 103.518 151.198 103.518 152.95L103.526 156.984H109.85Z" fill="white"/>
<path d="M111.735 158.869H101.641V152.95C101.641 150.167 103.909 147.899 106.692 147.899C109.474 147.899 111.735 150.16 111.735 152.95V158.869ZM105.41 155.099H107.965V152.95C107.965 152.243 107.391 151.669 106.684 151.669C105.977 151.669 105.403 152.243 105.403 152.95L105.41 155.099Z" fill="white"/>
<path d="M106.683 74.5293C93.7849 74.5293 83.3226 84.873 83.3226 97.6393C83.3226 110.398 93.7841 120.742 106.683 120.742C119.589 120.742 130.044 110.398 130.044 97.6393C130.051 84.8736 119.59 74.5293 106.683 74.5293ZM88.3223 103.382C88.3223 103.382 77.6695 79.4691 102.539 78.3514C102.539 78.3514 87.6966 87.5907 88.3223 103.382Z" fill="white"/>
<path d="M106.683 122.626C92.7617 122.626 81.438 111.414 81.438 97.6392C81.438 83.8575 92.7608 72.6445 106.683 72.6445C120.605 72.6445 131.929 83.8569 131.929 97.6392C131.936 111.414 120.606 122.626 106.683 122.626ZM90.5384 111.613C94.477 116.052 100.256 118.864 106.683 118.864C118.529 118.864 128.159 109.345 128.159 97.6466C128.159 86.7139 119.752 77.6878 108.988 76.5475L103.533 79.9635C103.393 80.0519 89.6262 88.8421 90.2005 103.324L90.5384 111.613ZM85.4953 101.07C86.0328 104.31 87.3138 107.306 89.1543 109.883L86.5996 104.155C86.5333 104.008 86.0254 102.844 85.4953 101.07ZM95.9199 81.3544C93.0341 82.3115 90.9285 83.8501 89.6179 85.963C88.2044 88.2526 87.8363 90.9767 87.9467 93.5532C89.8093 88.304 93.0633 84.1963 95.9199 81.3544Z" fill="white"/>
</svg>
