<svg width="214" height="214" viewBox="0 0 214 214" fill="none" xmlns="http://www.w3.org/2000/svg">
<circle cx="107" cy="107" r="107" fill="#95A84A"/>
<path d="M168.181 63.1394C166.25 62.4921 163.257 62.3814 162.516 59.9967C161.476 58.0492 163.578 55.5926 164.397 53.955C164.64 53.5345 164.552 52.9812 164.198 52.6492L159.351 47.8025C159.019 47.4484 158.466 47.3599 158.045 47.6033C156.219 48.5162 154.034 50.5467 151.804 49.418C149.685 48.7706 149.442 45.5616 148.861 43.8188C148.728 43.332 148.286 43 147.799 43H140.938C140.429 43 140.008 43.332 139.876 43.8188C139.212 45.7332 139.096 48.7431 136.733 49.4844C134.78 50.5246 132.329 48.4332 130.691 47.6033C130.249 47.3599 129.717 47.4263 129.363 47.8025L124.517 52.6492C124.163 52.9812 124.096 53.5345 124.34 53.955C125.241 55.7864 127.255 57.9717 126.154 60.1959C125.463 62.3039 122.292 62.5695 120.533 63.1393C120.068 63.2721 119.736 63.7147 119.736 64.2016V71.0623C119.736 71.5492 120.068 71.9918 120.533 72.1246C122.469 72.783 125.435 72.8992 126.221 75.2673C127.233 77.2259 125.147 79.6604 124.339 81.309C124.096 81.7295 124.162 82.2828 124.516 82.6369L129.363 87.4837C129.717 87.8378 130.271 87.9042 130.691 87.6607C132.506 86.7589 134.708 84.7449 136.91 85.846C139.029 86.5376 139.278 89.708 139.876 91.4674C140.008 91.9321 140.429 92.2641 140.938 92.2641H147.799C148.285 92.2641 148.728 91.9321 148.861 91.4674C149.508 89.5309 149.608 86.5654 151.981 85.7797C153.945 84.7506 156.385 86.8531 158.045 87.6608C158.466 87.9043 159.019 87.8379 159.351 87.4838L164.198 82.637C164.552 82.2829 164.64 81.7297 164.397 81.3092L162.671 78.2552C161.597 76.5068 162.687 73.5689 164.839 73.0765L168.181 72.1249C168.668 71.9921 169 71.5495 169 71.0626V64.2019C169 63.715 168.668 63.2722 168.181 63.1394ZM154.239 67.6321C153.824 80.6783 134.908 80.6728 134.497 67.6321C134.912 54.5858 153.828 54.5914 154.239 67.6321Z" fill="white"/>
<path d="M149.326 124.974V120.282C149.326 119.773 148.995 119.352 148.508 119.219L143.152 117.715C141.215 117.189 139.738 115.717 139.013 113.842C137.298 110.417 140.59 106.505 142.045 103.617C142.289 103.196 142.2 102.643 141.846 102.289L134.145 94.5874C133.79 94.2333 133.259 94.1669 132.817 94.4104C129.724 95.9707 125.912 99.2903 122.327 97.3096C118.603 96.0315 118.277 91.0963 117.236 87.9481C117.104 87.4833 116.661 87.1514 116.174 87.1514H105.241C104.754 87.1514 104.312 87.4833 104.179 87.9481L102.674 93.2816C102.148 95.2458 100.682 96.7286 98.801 97.4423C95.3099 99.1298 91.5255 95.882 88.5986 94.4104C88.156 94.1669 87.6249 94.2333 87.2708 94.5874L79.547 102.289C79.1929 102.643 79.1044 103.196 79.3479 103.617L82.0921 108.464C84.0673 111.855 82.07 116.735 78.2635 117.714L72.9078 119.219C72.4209 119.352 72.089 119.773 72.089 120.282V124.996C68.9796 125.361 49.1944 137.798 46.0854 139.336C43.6344 140.769 45.7535 144.637 48.2985 143.165L69.9863 130.595C73.1511 128.758 76.9354 128.359 80.388 129.488L101.744 136.459C106.292 138.02 104.157 144.869 99.5313 143.541C96.1784 142.534 89.3233 140.554 85.987 139.558C83.1984 138.794 81.9648 142.955 84.7477 143.807C88.3551 144.792 96.0179 147.254 99.6198 148.454C104.467 150.004 109.8 149.495 114.271 147.038L145.121 129.908C150.61 126.766 155.517 134.899 150.101 138.252L108.649 163.349C104.709 165.739 99.8627 166.447 95.3922 165.274L68.5246 158.281C67.9492 158.126 67.3295 158.214 66.8206 158.502L59.9598 162.596C57.5088 164.09 59.6555 167.897 62.2173 166.403L68.3034 162.795L94.263 169.545C99.8787 171.028 105.959 170.154 110.95 167.133L152.402 142.036C159.633 137.792 157.521 126.379 149.326 124.974ZM125.579 135.685L112.101 143.165C110.552 144.051 108.848 144.604 107.1 144.825C108.854 142.557 109.202 139.364 108.052 136.747C107.122 134.601 105.307 132.963 103.116 132.255L93.0909 128.979L91.3204 128.404C91.1876 127.519 91.1212 126.633 91.1212 125.748C91.1212 114.948 99.9072 106.185 110.707 106.185C121.485 106.185 130.27 114.949 130.27 125.748C130.27 128.714 129.606 131.569 128.367 134.158L125.579 135.685Z" fill="white"/>
</svg>
