<svg width="214" height="214" viewBox="0 0 214 214" fill="none" xmlns="http://www.w3.org/2000/svg">
<circle cx="107" cy="107" r="107" fill="#95A84A"/>
<path d="M155.212 150.527C155.513 150.458 155.786 150.333 156.019 150.168C157.468 151.731 159.52 152.72 161.816 152.72C166.193 152.72 169.745 149.174 169.745 144.792C169.745 140.415 166.198 136.863 161.816 136.863C159.52 136.863 157.462 137.858 156.019 139.421C155.769 139.244 155.479 139.114 155.16 139.045L78.9412 123.955C78.9696 123.677 79.0265 123.404 79.0265 123.114C79.0265 122.523 78.9526 121.955 78.8275 121.398C78.9355 121.358 79.0435 121.329 79.1458 121.273L102.387 108.507C102.41 108.496 102.427 108.467 102.455 108.45C103.905 110.292 106.133 111.497 108.662 111.497C113.038 111.497 116.591 107.95 116.591 103.568C116.591 99.9586 114.164 96.9462 110.862 95.9858C110.884 95.8664 110.935 95.7584 110.935 95.6277L110.947 70.7786C114.579 71.6823 121.962 72.9157 128.458 70.1306C135.119 67.2774 142.73 69.1132 146.259 70.267C147.242 70.591 148.243 69.8464 148.243 68.812L148.254 45.0251C148.254 44.3828 147.868 43.8144 147.265 43.5928C144.406 42.5469 135.852 39.9552 128.469 43.1096C121.972 45.889 114.589 44.6613 110.958 43.7576V40.2735C110.958 39.0174 109.94 38 108.684 38C107.428 38 106.411 39.0174 106.411 40.2735L106.388 95.6275C106.388 95.7525 106.439 95.8662 106.462 95.9855C103.165 96.9461 100.733 99.9528 100.733 103.562C100.733 103.823 100.784 104.068 100.812 104.324C100.608 104.369 100.397 104.409 100.204 104.517L76.9626 117.282C76.8603 117.339 76.7978 117.43 76.7069 117.498C75.2746 116.066 73.2909 115.179 71.1027 115.179C66.7262 115.179 63.1739 118.726 63.1739 123.108C63.1739 127.485 66.7205 131.037 71.1027 131.037C73.5864 131.037 75.7803 129.872 77.2297 128.081C77.457 128.224 77.7014 128.337 77.9742 128.394L154.029 143.451C153.955 143.888 153.893 144.326 153.893 144.781C153.893 145.235 153.955 145.679 154.029 146.122L46.7826 169.937C45.5549 170.21 44.7819 171.42 45.0548 172.648C45.2935 173.705 46.2313 174.427 47.2714 174.427C47.4362 174.427 47.601 174.41 47.7659 174.37L155.212 150.527Z" fill="white"/>
</svg>
