<?xml version="1.0" encoding="UTF-8"?>
<svg id="Layer_2" data-name="Layer 2" xmlns="http://www.w3.org/2000/svg" viewBox="0 0 106.47 106.47">
  <defs>
    <style>
      .cls-1 {
        fill: #fff;
      }

      .cls-2 {
        fill: #96a94a;
      }
    </style>
  </defs>
  <g id="Layer_1-2" data-name="Layer 1">
    <g>
      <path class="cls-2" d="M53.24,0h0c29.4,0,53.24,23.83,53.24,53.24h0c0,29.4-23.83,53.24-53.24,53.24h0C23.83,106.47,0,82.64,0,53.24h0C0,23.83,23.83,0,53.24,0Z"/>
      <path class="cls-1" d="M57.23,22.76c1.07,1.86,1.8,6.46,2.19,12.56h6.84v-6.47c-.15-.07-.29-.15-.43-.24-.26-.16-.5-.35-.7-.56l-.03-.03c-.36-.36-.65-.8-.85-1.29-.2-.48-.31-1.01-.31-1.56s.11-1.07.31-1.56c.21-.5.51-.95.88-1.32.37-.37.82-.68,1.32-.88.48-.2,1.01-.31,1.56-.31s1.07.11,1.56.31c.5.21.95.51,1.32.88.37.37.68.82.88,1.32v.03c.2.47.31.99.31,1.52s-.11,1.07-.31,1.56c-.21.5-.51.95-.88,1.32l-.03.03c-.18.18-.39.35-.61.49-.12.08-.24.15-.36.22v8.35c0,.5-.21.95-.53,1.28s-.78.53-1.28.53h-8.47c.06,1.74.11,3.56.12,5.44h16.05c.07-.14.14-.27.22-.4l.02-.03c.15-.24.33-.45.52-.64.37-.37.82-.68,1.32-.88h.03c.47-.2.99-.31,1.52-.31s1.07.11,1.56.31c.5.21.95.51,1.32.88.37.37.68.82.88,1.32.2.49.31,1.01.31,1.56s-.11,1.07-.31,1.56c-.21.5-.51.95-.88,1.32-.37.37-.82.68-1.32.88h-.03c-.47.2-.99.31-1.52.31s-1.08-.11-1.56-.31c-.5-.21-.94-.51-1.32-.88-.2-.2-.38-.42-.54-.67-.08-.13-.16-.26-.23-.4h-16.05c-.02,2.06-.06,4.16-.13,6.3h19.62c.5,0,.95.21,1.28.53s.53.78.53,1.28v13.46c.17.07.34.16.5.25.28.17.54.37.78.61.37.37.68.82.88,1.32v.03c.2.47.31.99.31,1.52s-.11,1.07-.31,1.56c-.21.5-.51.95-.88,1.32-.37.37-.82.68-1.32.88-.48.2-1.01.31-1.56.31s-1.07-.11-1.56-.31c-.5-.21-.95-.51-1.32-.88-.37-.37-.68-.82-.88-1.32-.2-.48-.31-1.01-.31-1.56s.11-1.08.31-1.56c.21-.5.51-.95.88-1.32.17-.17.36-.33.56-.47.09-.07.2-.13.3-.19v-11.84h-17.95c-.08,1.71-.17,3.42-.29,5.13h5.82c.5,0,.95.21,1.28.53s.53.78.53,1.28v7.2c.13.07.25.14.38.22.24.16.46.34.65.53l.03.03c.36.37.65.81.85,1.29.2.48.31,1.01.31,1.56s-.11,1.08-.31,1.56l-.02.03c-.21.49-.51.93-.87,1.29l-.03.03c-.37.36-.81.66-1.29.86s-1.01.31-1.56.31-1.07-.11-1.56-.31c-.5-.21-.95-.51-1.32-.88l-.03-.03c-.36-.37-.65-.81-.85-1.29-.2-.49-.31-1.01-.31-1.56s.11-1.07.31-1.56c.21-.5.51-.95.88-1.32h0c.21-.21.44-.39.68-.55.13-.08.27-.16.41-.23v-5.36h-4.27c-.06.72-.12,1.44-.18,2.16-.08.93-.35,2.64-.18,3.49.46,2.25-1.57,9.04-7.54,10.29-2.94.61-5.99-.29-8.28-2.08-1.84-1.43-3.21-3.44-3.71-5.71-.96-.04-1.94-.23-2.88-.55-2.1-.71-4.12-2.08-5.7-3.91-1.59-1.83-2.74-4.13-3.1-6.69-.18-1.33-.16-2.73.14-4.16-1.03-.93-1.91-1.98-2.62-3.13-1.22-1.96-1.89-4.16-1.87-6.43.03-2.28.75-4.6,2.33-6.75.92-1.25,2.13-2.44,3.65-3.53-.02-.42-.02-.83,0-1.24.12-3.33,1.35-6.27,3.14-8.45,1.86-2.27,4.34-3.75,6.89-4.11h.01c.09-.37.2-.74.33-1.1.82-2.23,2.52-4.13,4.59-5.34,2.09-1.21,4.59-1.75,7.04-1.24,2.35.5,4.58,1.9,6.27,4.52h0ZM39.2,70.38c.86-2.72,3.15-5.44,7.46-7.64,1.08-.54,2.38-.12,2.94.95.54,1.08.12,2.38-.95,2.94-3.99,2.04-5.5,4.38-5.5,6.42,0,1.59.91,3.08,2.23,4.11,1.34,1.04,3.07,1.58,4.7,1.24,2.04-.42,4-2.3,5.02-6.41V28.86c-1.02-4.07-2.98-5.94-5.01-6.37-1.34-.28-2.76.04-3.98.75-1.23.71-2.21,1.81-2.68,3.07-.62,1.69-.25,3.76,1.86,5.71.88.82.93,2.18.12,3.06s-2.18.93-3.06.12c-1.64-1.52-2.65-3.13-3.16-4.74-1.29.31-2.57,1.17-3.6,2.42-1.21,1.47-2.04,3.46-2.12,5.75-.02.61.01,1.25.1,1.91h0c.12.85-.26,1.74-1.04,2.22-1.58.97-2.75,2.04-3.57,3.15-.99,1.35-1.44,2.77-1.46,4.13-.02,1.39.41,2.77,1.18,4.01.65,1.05,1.53,2.01,2.62,2.81.81.56,1.19,1.6.86,2.58-.43,1.27-.52,2.49-.36,3.64.23,1.65,1,3.15,2.04,4.36,1.05,1.21,2.38,2.12,3.74,2.58.55.21,1.1.32,1.65.34h0ZM39.7,39.73c.85-.84,2.23-.83,3.07.03.84.85.83,2.23-.03,3.07-1.86,1.84-2.83,4.2-2.94,6.61-.1,2.49.71,5.05,2.4,7.16.75.93.6,2.3-.33,3.05s-2.3.6-3.05-.33c-2.38-2.95-3.51-6.53-3.36-10.05.15-3.49,1.56-6.9,4.24-9.53h0Z"/>
    </g>
  </g>
</svg>