<?xml version="1.0" encoding="UTF-8"?>
<svg id="Layer_2" data-name="Layer 2" xmlns="http://www.w3.org/2000/svg" viewBox="0 0 106.47 106.47">
  <defs>
    <style>
      .cls-1 {
        fill: #fff;
      }

      .cls-2 {
        fill: #96a94a;
      }
    </style>
  </defs>
  <g id="Layer_1-2" data-name="Layer 1">
    <g>
      <path class="cls-2" d="M53.24,0h0c29.4,0,53.24,23.83,53.24,53.24h0c0,29.4-23.83,53.24-53.24,53.24h0C23.83,106.47,0,82.64,0,53.24h0C0,23.83,23.83,0,53.24,0Z"/>
      <path class="cls-1" d="M71.11,60.28c-.23-.16-.5-.23-.76-.18s-.5.2-.66.42l-.91,1.28c-.32-.14-.66-.25-1.02-.34s-.69-.16-1.05-.21l-.29-1.67c-.05-.29-.2-.5-.41-.66-.23-.16-.48-.21-.76-.16l-2.1.38c-.27.05-.48.18-.66.41-.16.23-.23.48-.18.76l.27,1.53c-.34.14-.66.3-.96.5-.3.18-.6.39-.87.6l-1.42-.98c-.23-.16-.48-.23-.75-.18s-.5.2-.66.43l-1.21,1.73c-.16.23-.23.5-.18.76.05.29.2.5.43.66l1.28.91c-.14.32-.25.66-.34,1.02s-.16.69-.21,1.05l-1.67.29c-.29.05-.5.2-.66.41-.16.23-.21.48-.16.76l.38,2.1c.05.27.18.48.41.66.23.16.48.23.76.18l1.53-.27c.14.34.3.66.5.96.18.3.39.6.6.89l-.98,1.4c-.16.23-.23.48-.18.75s.2.5.42.66l1.74,1.22c.23.16.5.21.76.16.27-.05.5-.18.67-.41l.91-1.3c.32.14.66.25,1.02.34s.69.16,1.05.21l.29,1.67c.05.29.2.5.41.66.23.16.48.21.76.16l2.1-.38c.27-.05.48-.18.66-.41.16-.23.23-.48.18-.76l-.27-1.53c.34-.14.66-.3.96-.5.3-.18.6-.39.89-.6l1.4.98c.23.16.48.23.76.18.29-.05.5-.2.66-.42l1.22-1.74c.16-.23.21-.5.16-.76-.05-.27-.18-.5-.41-.67l-1.3-.89c.14-.32.25-.66.34-1.02s.16-.69.21-1.05l1.67-.29c.29-.05.5-.2.66-.41.16-.23.21-.48.16-.76l-.38-2.1c-.05-.27-.18-.48-.41-.66-.23-.16-.48-.23-.76-.18l-1.53.27c-.14-.32-.3-.64-.5-.96-.18-.32-.39-.6-.6-.87l.98-1.42c.16-.23.23-.48.18-.75s-.2-.5-.42-.66l-1.73-1.21-.05.02h0ZM86.88,54.5l-3.89.04c-.57,0-1.03-.45-1.03-1.02s.45-1.03,1.02-1.03l6.41-.07h.18s0,0,0,0h.02s0,0,0,0h.02s0,0,0,0h.02s0,0,0,0h.02s0,0,0,0h.02s0,0,0,0h.02s0,0,0,0h.02s0,0,0,0h.02s0,0,0,0h.02s0,0,0,0h.02s0,0,0,0h.02s0,0,0,0h.02s0,0,0,0h.02s0,.01,0,.01h.02s0,.01,0,.01h.02s0,.01,0,.01h.02s0,.01,0,.01h.02s0,.01,0,.01h.02s0,.01,0,.01h.02s0,.01,0,.01h.02s0,.01,0,.01h.02s0,.01,0,.01h.02s0,.01,0,.01h.02s0,.01,0,.01h.02s0,.01,0,.01h.02s0,.02,0,.02h.01s0,.02,0,.02h.01s.01.02.01.02h0s.01.02.01.02h0s.01.02.01.02h0s.01.02.01.02h0s.01.02.01.02h0s.01.02.01.02h0s.01.02.01.02h0s.01.02.01.02h0s.01.02.01.02h0s.01.02.01.02h0s.01.02.01.02h0s.01.02.01.02h0s.01.02.01.02h0s.01.02.01.02h0s0,.02,0,.02h0s0,.02,0,.02h0s0,.02,0,.02v.02s0,0,0,0h0s0,.02,0,.02h0s0,.02,0,.02h0s0,.02,0,.02h0s0,.02,0,.02h0s0,.02,0,.02h0s0,.03,0,.03h0s0,.03,0,.03h0s0,.03,0,.03h0s0,.03,0,.03v.02h0v.03h0v.03h0v.03h0s.03,6.63.03,6.63c0,.57-.45,1.03-1.02,1.03-.57,0-1.03-.45-1.03-1.02l-.02-4.16-3.76,3.76c-.4.4-1.06.4-1.46,0s-.4-1.06,0-1.46l3.69-3.74h0ZM51.48,23.66l-3.89.04c-.57,0-1.03-.45-1.03-1.02,0-.57.45-1.03,1.02-1.03l6.41-.07h.18s0,0,0,0h.02s0,0,0,0h.02s0,0,0,0h.02s0,0,0,0h.02s0,0,0,0h.02s0,0,0,0h.02s0,0,0,0h.02s0,0,0,0h.02s0,0,0,0h.02s0,0,0,0h.02s0,0,0,0h.02s0,0,0,0h.02s0,0,0,0h.02s0,.01,0,.01h.02s0,.01,0,.01h.02s0,.01,0,.01h.02s0,.01,0,.01h.02s0,.01,0,.01h.02s0,.01,0,.01h.02s0,.01,0,.01h.02s0,.01,0,.01h.02s0,.01,0,.01h.02s0,.01,0,.01h.02s0,.01,0,.01h.02s0,.01,0,.01h.02s0,.02,0,.02h.01s0,.02,0,.02h.01v.02h.01v.04s.01,0,.01,0v.02s.01,0,.01,0v.02s.01,0,.01,0v.02s.01,0,.01,0v.02s.01,0,.01,0v.02s.01,0,.01,0v.02s.01,0,.01,0v.02s.01,0,.01,0v.02s.01,0,.01,0v.02s.01,0,.01,0v.02s.01,0,.01,0v.02s.01,0,.01,0l-.04.02h0s0,.02,0,.02h0s0,.02,0,.02h0s0,.02,0,.02v.02s0,0,0,0h0s0,.02,0,.02h0s0,.02,0,.02h0s0,.02,0,.02h0s0,.02,0,.02h0s0,.03,0,.03h0s0,.03,0,.03h0s0,.03,0,.03h0s0,.03,0,.03h0v.05h0v.03h0v.03h0v.03h0s.03,6.63.03,6.63c0,.57-.45,1.03-1.02,1.03s-1.03-.45-1.03-1.02l-.02-4.16-3.76,3.76c-.4.4-1.06.4-1.46,0s-.4-1.06,0-1.46l3.74-3.76h0ZM75.28,32.18l-7.24.07c-.85,0-1.54-.67-1.55-1.52,0-.85.67-1.54,1.52-1.55l11-.11h.2s0,0,0,0h.03s0,0,0,0h.03s0,0,0,0h.03s0,0,0,0h.03s0,0,0,0h.03s0,0,0,0h.03s0,0,0,0h.03s0,0,0,0h.03s0,.01,0,.01h.03s0,.01,0,.01h.03s0,.01,0,.01h.03s0,.01,0,.01h.03s0,.01,0,.01h.03s0,.01,0,.01h.03s0,.01,0,.01h.03s0,.02,0,.02h.03s0,.02,0,.02l.02.02h0s.02.02.02.02h0s.02.02.02.02h0s.02.02.02.02h0s.02.02.02.02h0s.02.02.02.02h0s.02.02.02.02h0s.02.02.02.02h0s.02.02.02.02h0s.02.02.02.02h0s.02.03.02.03h0s.02.03.02.03h0s.02.03.02.03h0s.02.03.02.03h0s.02.03.02.03h0s.02.03.02.03h0s.02.03.02.03h0s.02.03.02.03h0s.02.03.02.03h0s.02.03.02.03h0s.02.03.02.03h0s.02.03.02.03h0s.02.04.02.04h0s.02.04.02.04v.03s.01,0,.01,0v.03s.01,0,.01,0v.03s.01,0,.01,0v.03s.01,0,.01,0v.03s.01,0,.01,0v.03s.01,0,.01,0v.03s.01,0,.01,0v.03s.01,0,.01,0v.03s0,0,0,0v.03s0,0,0,0v.03s0,0,0,0v.04s.01.03.01.03h0s0,.04,0,.04h0s0,.04,0,.04h0s0,.04,0,.04h0v.04h0v.08h0s.05,11.17.05,11.17c0,.85-.68,1.53-1.53,1.54s-1.53-.68-1.54-1.53l-.03-7.47-10.65,10.63c-.6.6-1.58.6-2.18,0s-.6-1.58,0-2.18l10.59-10.59h0ZM65.01,65.23c.55-.09,1.1-.09,1.65.04.53.13,1.02.34,1.46.64.42.3.8.69,1.1,1.16.3.46.5.98.59,1.53s.09,1.1-.04,1.65c-.13.53-.34,1.02-.64,1.46-.3.42-.69.8-1.16,1.1-.46.3-.98.5-1.53.59s-1.1.09-1.65-.04c-.53-.13-1.02-.34-1.46-.64-.42-.3-.8-.69-1.1-1.16-.3-.46-.5-.98-.59-1.53s-.09-1.1.04-1.65c.13-.53.34-1.02.64-1.46.3-.42.69-.8,1.16-1.1.47-.3.98-.5,1.53-.59h0ZM48.86,40.3c-.09-.09-.16-.14-.25-.18-.07-.04-.16-.05-.27-.05s-.2.02-.27.05-.16.09-.23.16l-.02.02-2.01,2.01c-.39.39-1.02.44-1.46.13-.23-.14-.46-.29-.73-.42-.29-.14-.55-.29-.8-.41-.27-.13-.55-.25-.84-.36-.25-.09-.53-.2-.87-.3-.48-.16-.78-.6-.78-1.09v-3.08c0-.11-.02-.21-.05-.29-.04-.07-.09-.16-.16-.21-.07-.07-.14-.13-.21-.16-.07-.04-.18-.05-.29-.05h-3.86c-.11,0-.2.02-.27.04-.07.04-.16.09-.25.18-.07.07-.13.14-.14.21-.04.07-.05.18-.05.29v2.83c0,.57-.41,1.03-.94,1.14-.3.07-.59.14-.84.21-.29.09-.55.18-.84.29-.27.11-.55.21-.82.36-.29.13-.53.27-.78.39-.46.25-1,.16-1.35-.2l-2.22-2.2s-.02-.02-.02-.04c-.07-.07-.14-.13-.21-.16-.07-.04-.14-.04-.25-.04s-.2.02-.27.05c-.09.04-.16.09-.25.18l-2.7,2.72c-.09.09-.14.16-.18.25-.04.07-.05.16-.05.27s.02.2.05.27.09.16.16.23v.02l2.01,2.01c.39.39.44,1.02.13,1.46-.14.23-.29.46-.42.73-.14.29-.29.55-.41.8-.13.27-.25.55-.36.84-.09.25-.2.53-.3.87-.16.48-.6.78-1.09.78h-3.06c-.11,0-.21.02-.29.05s-.14.09-.21.14c-.07.07-.13.14-.14.21-.04.07-.05.18-.05.29v3.88c0,.11.02.2.04.27.04.07.09.16.18.25.07.07.14.13.21.14.07.04.18.05.29.05h2.83c.57,0,1.03.41,1.14.94.07.3.14.59.21.82.09.29.18.57.29.85.11.27.21.55.36.84.14.3.27.57.39.82.23.46.14,1-.21,1.33l-2.2,2.19h-.03c-.07.06-.13.13-.16.2s-.04.14-.04.25.02.2.05.27c.04.09.09.18.18.25l2.69,2.72c.07.07.16.13.25.16s.18.05.29.05.21-.02.3-.05c.07-.04.16-.09.23-.14l1.99-2.03c.39-.41,1.02-.44,1.46-.14.23.14.46.29.73.42.29.14.55.29.8.41.27.13.55.25.84.36.25.09.53.2.87.3.48.16.78.6.78,1.09v3.08c0,.11.02.21.05.29s.09.16.14.21c.14.14.3.2.51.2h3.88c.11,0,.2-.02.27-.04.07-.04.16-.09.25-.18.07-.07.13-.14.14-.21.04-.07.05-.18.05-.29v-2.83c0-.57.41-1.03.94-1.14.3-.07.59-.14.84-.21.29-.09.55-.18.84-.29.27-.11.55-.21.84-.36.3-.14.57-.27.82-.39.46-.23,1-.14,1.33.21l2.19,2.2.02.02c.07.07.14.13.21.16s.16.04.27.04.2-.02.27-.05.14-.09.21-.16c.02-.02.04-.04.05-.04l2.7-2.67c.07-.07.13-.16.16-.25s.05-.18.05-.29-.02-.21-.05-.3c-.04-.07-.09-.16-.14-.23l-2.03-1.99c-.41-.39-.44-1.02-.14-1.46.14-.23.29-.46.42-.73.14-.29.29-.55.41-.8.13-.27.25-.55.36-.84.09-.25.2-.53.3-.87.16-.48.6-.78,1.09-.78h3.08c.11,0,.21-.02.29-.05s.16-.09.21-.14c.14-.14.2-.3.2-.51v-3.88c0-.11-.02-.2-.04-.27-.04-.07-.09-.16-.18-.25-.07-.07-.14-.13-.21-.14-.07-.04-.18-.05-.29-.05h-2.83c-.57,0-1.05-.42-1.14-.96-.07-.25-.14-.51-.21-.78-.09-.27-.18-.55-.3-.85,0-.02-.02-.04-.02-.05-.11-.29-.21-.53-.32-.78-.13-.27-.25-.53-.39-.78-.25-.46-.16-1,.2-1.35l2.2-2.22s.02-.02.04-.02c.07-.07.13-.14.16-.21s.04-.14.04-.25-.02-.2-.05-.27c-.04-.09-.09-.16-.18-.25l-2.72-2.7v.05h.01ZM49.5,38c.38.16.69.38.98.66l2.72,2.7h.02c.29.29.5.6.66.96.16.38.23.75.23,1.16s-.09.8-.23,1.16c-.16.36-.38.67-.67.94l-1.6,1.62c.02.05.05.11.07.16.14.3.27.62.39.93,0,.02.02.04.02.05.13.3.23.64.34,1l.04.13h1.96c.41,0,.8.07,1.16.23.36.14.67.38.96.66l.02.02c.29.29.5.6.64.96.14.36.23.75.23,1.14v3.88c0,.84-.29,1.55-.87,2.13-.29.29-.62.51-.98.66-.36.14-.75.21-1.16.21h-2.27c-.02.05-.05.13-.07.18-.13.32-.27.64-.41.96-.16.34-.3.66-.46.94l-.05.11,1.39,1.37.05.05c.29.29.48.62.62.98s.21.73.21,1.14-.07.76-.21,1.12-.34.67-.62.98l-.04.04-2.72,2.7c-.29.3-.6.51-.96.67-.36.16-.75.23-1.18.23-.41,0-.8-.09-1.18-.23-.38-.16-.69-.39-.96-.67l-1.58-1.6c-.05.04-.11.05-.18.07-.3.13-.62.27-.96.39-.32.13-.66.23-1,.34-.05.02-.09.04-.14.04v1.94c0,.41-.07.8-.23,1.16-.14.36-.38.67-.66.96l-.02.02c-.29.29-.6.5-.96.64-.36.14-.75.23-1.14.23h-3.88c-.84,0-1.55-.29-2.13-.87-.29-.29-.51-.62-.66-.98s-.21-.75-.21-1.16v-2.27c-.05-.02-.13-.05-.18-.07-.32-.13-.64-.27-.96-.41-.34-.16-.66-.3-.94-.46l-.11-.05-1.37,1.39-.05.05c-.29.29-.62.48-.98.62-.36.14-.73.21-1.14.21s-.76-.07-1.12-.21-.67-.34-.98-.62l-.04-.04-2.72-2.76c-.29-.29-.5-.6-.66-.96-.16-.38-.23-.75-.23-1.16s.09-.8.23-1.16c.16-.36.39-.67.67-.96l1.6-1.58c-.04-.05-.05-.11-.07-.18-.13-.3-.27-.62-.39-.96s-.25-.66-.34-1l-.04-.14h-1.92c-.41,0-.8-.07-1.16-.23-.36-.14-.67-.38-.96-.66l-.02-.02c-.29-.29-.5-.6-.64-.96-.14-.37-.23-.76-.23-1.15v-3.88c0-.41.07-.78.21-1.16.14-.36.38-.67.66-.98.29-.29.62-.51.98-.66.36-.14.75-.21,1.16-.21h2.27c.02-.05.05-.13.07-.18.13-.32.27-.64.41-.96.16-.34.3-.66.46-.94l.05-.11-1.37-1.39c-.29-.29-.51-.6-.66-.98-.16-.38-.23-.76-.23-1.16s.07-.78.23-1.16c.16-.38.38-.69.66-.98l2.7-2.72v-.02c.29-.29.6-.5.96-.66.38-.16.75-.23,1.16-.23s.8.09,1.16.23c.36.16.67.38.94.67l1.62,1.6c.05-.02.11-.05.14-.07.3-.14.62-.27.96-.41.32-.13.66-.23,1-.34.05-.02.09-.04.14-.04v-1.94c0-.41.07-.8.23-1.16.14-.36.38-.67.66-.96l.02-.02c.29-.29.6-.5.96-.64s.75-.23,1.14-.23h3.88c.41,0,.78.07,1.16.21.38.14.69.38.98.66.29.29.51.62.66.98.14.36.21.75.21,1.16v2.27c.05.02.13.05.18.07.32.13.64.27.96.41.34.16.66.3.94.46l.11.05,1.39-1.37c.29-.29.6-.51.98-.66.38-.16.76-.23,1.16-.23s.78.07,1.16.23v.05h-.03ZM37.21,45.21c.59,0,1.18.05,1.74.18.55.11,1.1.29,1.65.51.51.23,1.02.5,1.47.8s.89.66,1.28,1.05c.39.39.75.82,1.05,1.3.32.46.59.96.8,1.47.02.04.02.07.04.09.21.51.38,1.05.48,1.56.11.57.18,1.16.18,1.74s-.05,1.18-.18,1.74c-.11.55-.29,1.1-.51,1.65-.23.51-.5,1.02-.8,1.47-.32.46-.66.89-1.05,1.3-.39.39-.82.75-1.3,1.05-.46.32-.96.59-1.47.8-.04.02-.07.02-.09.04-.51.21-1.05.38-1.56.48-.57.11-1.16.18-1.74.18s-1.18-.05-1.74-.18c-.55-.11-1.1-.29-1.65-.51-.51-.23-1.02-.5-1.47-.8-.46-.3-.89-.66-1.28-1.05-.39-.39-.75-.82-1.05-1.3-.32-.46-.59-.96-.8-1.47-.02-.04-.02-.07-.04-.09-.21-.51-.38-1.05-.48-1.56-.11-.57-.18-1.16-.18-1.74s.05-1.18.18-1.74c.11-.55.29-1.1.51-1.65.23-.51.5-1.02.8-1.47s.66-.89,1.05-1.3c.39-.39.82-.75,1.28-1.05.46-.32.96-.59,1.47-.8.04-.02.07-.02.09-.04.51-.21,1.05-.38,1.56-.48.57-.11,1.16-.18,1.74-.18h.02ZM38.52,47.62c-.41-.09-.85-.13-1.3-.13s-.87.04-1.3.13c-.41.09-.78.2-1.14.34-.02.02-.04.02-.07.04-.41.18-.78.38-1.12.6-.34.23-.66.48-.94.76s-.55.6-.76.94c-.23.34-.42.71-.6,1.12-.16.38-.29.78-.38,1.21-.09.41-.13.85-.13,1.3s.04.87.13,1.3c.09.41.2.78.34,1.14.02.02.02.04.04.07.18.41.38.78.6,1.12.23.34.48.66.76.94.29.29.6.55.94.76.34.23.71.42,1.12.6.38.16.78.29,1.21.38.41.09.85.13,1.3.13s.87-.04,1.3-.13c.41-.09.78-.2,1.14-.34.02-.02.04-.02.07-.04.41-.18.78-.38,1.12-.6.34-.23.66-.48.94-.76.29-.29.55-.6.76-.94.23-.34.42-.71.6-1.12.16-.38.29-.78.38-1.21.09-.41.13-.85.13-1.3s-.04-.87-.13-1.3c-.09-.41-.2-.78-.34-1.14-.02-.02-.02-.04-.04-.07-.18-.41-.38-.78-.6-1.12-.23-.34-.48-.66-.76-.94-.29-.29-.6-.55-.94-.76-.34-.23-.71-.42-1.12-.6-.38-.17-.79-.29-1.21-.38h0Z"/>
    </g>
  </g>
</svg>