<?xml version="1.0" encoding="UTF-8"?>
<svg id="Layer_2" data-name="Layer 2" xmlns="http://www.w3.org/2000/svg" viewBox="0 0 106.47 106.47">
  <defs>
    <style>
      .cls-1 {
        fill: #fff;
      }

      .cls-2 {
        fill: #96a94a;
      }
    </style>
  </defs>
  <g id="Layer_1-2" data-name="Layer 1">
    <g>
      <path class="cls-2" d="M53.24,0h0c29.4,0,53.24,23.83,53.24,53.24h0c0,29.4-23.83,53.24-53.24,53.24h0C23.83,106.47,0,82.64,0,53.24h0C0,23.83,23.83,0,53.24,0Z"/>
      <path class="cls-1" d="M23.44,54.02c1.48,1.32,2.95,2.56,4.43,3.73,1.95-2.96,4.07-5.67,6.38-8.13-.44-.82-.68-1.76-.68-2.75,0-.49.06-.97.17-1.42-2.41-1.56-4.89-3.3-7.48-5.25-1.91,3.94-2.98,8.36-2.98,13.03h0s0,0,0,0c0,.32,0,.63.02.95l.14-.16h0ZM27.69,37.6c2.59,1.95,5.06,3.7,7.46,5.26,1.07-1.14,2.59-1.86,4.28-1.86,1.34,0,2.57.45,3.56,1.2.71-.47,1.43-.92,2.16-1.35,3.06-1.8,6.34-3.26,9.86-4.38-.03-.23-.04-.47-.04-.71,0-.9.18-1.75.51-2.53-3.58-3.03-7.81-5.72-12.69-8.09-4.07,1.52-7.72,3.89-10.73,6.9-1.66,1.66-3.13,3.52-4.37,5.54h0ZM46.9,23.95c3.86,2.08,7.3,4.36,10.31,6.89,1.01-.88,2.29-1.46,3.69-1.6.32-1.55.61-3.12.9-4.72-2.71-.81-5.59-1.25-8.56-1.25h0s0,0,0,0h0c-2.17,0-4.29.23-6.34.67h0ZM64.61,25.52c-.25,1.39-.51,2.76-.78,4.11,1.96.74,3.48,2.39,4.03,4.44,2.66-.2,5.42-.23,8.3-.11-.55-.66-1.14-1.29-1.74-1.9-2.78-2.78-6.11-5.02-9.8-6.54h0ZM78.44,37.05c-3.68-.28-7.17-.28-10.47-.03-.27,1.41-1,2.67-2.02,3.6.87,1.34,1.66,2.73,2.36,4.17,1.03,2.1,1.87,4.3,2.54,6.61.2-.02.41-.03.62-.03,2.63,0,4.86,1.73,5.6,4.13,1.94.07,3.95.1,6.03.12.06-.78.09-1.57.09-2.37h0s0,0,0,0c0-5.96-1.75-11.52-4.76-16.19h0ZM82.72,58.54c-1.9-.01-3.73-.05-5.52-.11-.48,2.29-2.28,4.09-4.58,4.55.1,2.74,0,5.6-.29,8.6,1.68-.18,3.39-.42,5.12-.73,2.61-3.59,4.45-7.77,5.26-12.31h0ZM79.15,73.5v.03s-.03,0-.03,0c-.81,1.04-1.69,2.03-2.62,2.96-5.95,5.95-14.17,9.63-23.26,9.63h0s0,0,0,0h0c-9.09,0-17.31-3.69-23.26-9.64-5.95-5.95-9.63-14.17-9.63-23.26h0s0,0,0,0c0-9.09,3.68-17.31,9.63-23.26,5.95-5.95,14.17-9.63,23.26-9.63h0s0,0,0,0h0c9.09,0,17.31,3.69,23.26,9.64,5.95,5.95,9.63,14.17,9.63,23.26h0s0,0,0,0c0,7.65-2.61,14.68-6.98,20.26h0ZM74.55,74.28c-.86.11-1.71.21-2.56.3-.11.76-.22,1.52-.35,2.3.98-.76,1.91-1.58,2.78-2.46l.13-.14h0ZM68.22,79.17c.3-1.49.55-2.95.77-4.38-5.37.28-10.49-.11-15.46-1.16-.97,1.15-2.42,1.88-4.04,1.88-.12,0-.24,0-.36-.01-.94,2.39-1.84,4.71-2.67,6.91,2.18.5,4.45.77,6.78.77h0s0,0,0,0h0c5.46,0,10.57-1.46,14.98-4.01h0ZM43.62,81.61c.91-2.42,1.82-4.75,2.74-7.11-1.16-.85-1.96-2.17-2.13-3.67-5.32-2.11-10.48-5.04-15.59-8.78-.82,1.38-1.6,2.81-2.35,4.29,1.47,3.01,3.43,5.74,5.77,8.08,3.22,3.22,7.16,5.71,11.56,7.2h0ZM24.84,62.79c.47-.86.96-1.71,1.45-2.54-.87-.69-1.75-1.4-2.62-2.13.26,1.6.65,3.16,1.16,4.67h0ZM44.81,44.53c.31.72.49,1.51.49,2.35,0,.56-.08,1.1-.23,1.62,3.22,1.54,6.39,2.77,9.6,3.73,1.17-3.49,2.29-7.12,3.33-10.92-.82-.52-1.52-1.22-2.04-2.04-3.34,1.05-6.45,2.43-9.34,4.13-.62.36-1.23.74-1.83,1.14h0ZM43.57,51.03c-1.06,1.06-2.52,1.71-4.14,1.71-1.18,0-2.28-.35-3.2-.95-2.18,2.33-4.19,4.92-6.03,7.74,4.78,3.54,9.6,6.31,14.55,8.33.87-1.73,2.66-2.92,4.73-2.92.2,0,.39.01.59.03,1.23-3.21,2.46-6.53,3.66-9.97-3.4-1.03-6.75-2.33-10.16-3.98h0ZM63.37,42.06c-.58.17-1.2.26-1.84.26-.25,0-.49-.01-.73-.04-1.03,3.73-2.13,7.29-3.27,10.72,2.81.71,5.68,1.24,8.67,1.63.44-.88,1.09-1.64,1.88-2.2-.63-2.23-1.44-4.35-2.42-6.37-.68-1.39-1.44-2.72-2.29-4.01h0ZM69.68,62.82c-2.28-.73-3.95-2.81-4.08-5.29-3.11-.41-6.1-.98-9.03-1.73-1.24,3.57-2.51,6.99-3.78,10.31,1.21.97,1.98,2.46,1.98,4.12,0,.22-.01.44-.04.65,4.69.93,9.54,1.25,14.63.94.34-3.15.44-6.15.32-9h0Z"/>
    </g>
  </g>
</svg>