<?xml version="1.0" encoding="UTF-8"?>
<svg id="Layer_2" data-name="Layer 2" xmlns="http://www.w3.org/2000/svg" viewBox="0 0 106.47 106.47">
  <defs>
    <style>
      .cls-1 {
        fill: #fff;
      }

      .cls-2 {
        fill: #96a94a;
      }
    </style>
  </defs>
  <g id="Layer_1-2" data-name="Layer 1">
    <g>
      <path class="cls-2" d="M53.24,0h0c29.4,0,53.24,23.83,53.24,53.24h0c0,29.4-23.83,53.24-53.24,53.24h0C23.83,106.47,0,82.64,0,53.24h0C0,23.83,23.83,0,53.24,0Z"/>
      <path class="cls-1" d="M32.42,75.28l.13-23.43h-2.64v29.81c3.64-.94,7.28-1.54,10.95-1.56,3.39-.02,6.78.45,10.18,1.6-2.11-1.71-4.47-2.97-6.98-3.79-3.17-1.03-6.59-1.37-10.09-1.07-.79.07-1.49-.53-1.55-1.31-.01-.09-.01-.17,0-.25h0ZM36.49,36.22c-.34,0-.64-.12-.86-.33-.23-.22-.37-.51-.39-.86-.01-.34.12-.65.33-.88.22-.23.51-.37.86-.39l2.68-.09c.34-.01.65.12.88.33.23.22.37.51.39.86v.02h0v.04c-.01.31-.13.6-.34.82-.22.23-.51.37-.86.39h-.02s-.03,0-.03,0l-2.65.08h0ZM53.01,18.12c.01-.34.16-.64.39-.86.22-.21.53-.34.86-.34h0s.06,0,.08,0c.31.03.59.17.79.37.21.22.34.53.34.86h0s0,.04,0,.06l-.07,2.62h0s0,.06,0,.08c-.02.31-.17.59-.37.79-.22.21-.53.34-.86.34h0s-.06,0-.08,0c-.31-.02-.59-.17-.79-.37-.21-.22-.34-.53-.34-.86h0s0-.04,0-.06l.06-2.63h0ZM64.6,21.74c.19-.28.47-.46.78-.52.31-.06.64,0,.92.18h0c.28.19.46.48.52.79s0,.64-.18.92l-1.49,2.23c-.19.28-.47.46-.78.53s-.64,0-.92-.18-.46-.47-.52-.78c-.06-.31,0-.64.18-.92l1.49-2.25h0ZM69.89,32.42h.04c.32-.02.61.08.85.27.25.2.41.49.45.83h0v.05c.02.32-.08.62-.27.85-.2.25-.49.41-.83.45l-2.67.28c-.34.03-.66-.07-.9-.27-.25-.2-.41-.49-.45-.83-.03-.34.07-.66.27-.9.2-.25.49-.41.83-.45.9-.09,1.79-.2,2.69-.28h0ZM39.71,22.71c-.25-.23-.38-.54-.39-.85-.01-.31.09-.63.32-.88.23-.25.54-.38.85-.39.31-.01.63.09.88.32l1.97,1.83c.25.23.38.54.39.85.01.32-.09.63-.32.88s-.54.38-.85.39c-.32.01-.63-.09-.88-.32l-1.97-1.83h0ZM45.88,45.6c-.46-.53-.94-1.07-1.4-1.69-.47-.64-.93-1.36-1.33-2.21h0c-.39-.83-.69-1.69-.9-2.56-.21-.87-.31-1.77-.3-2.69,0-.92.13-1.84.37-2.78.25-.94.6-1.88,1.09-2.83l.04-.08c.64-1.08,1.41-1.99,2.27-2.74.92-.8,1.93-1.41,2.99-1.84l.08-.03c.83-.34,1.69-.56,2.56-.68.92-.13,1.85-.15,2.79-.07.91.08,1.81.27,2.68.55.87.28,1.7.65,2.48,1.11,1.02.6,1.94,1.36,2.73,2.25.76.86,1.38,1.84,1.83,2.92.24.58.44,1.21.59,1.89.15.66.24,1.37.26,2.1.02.76-.03,1.54-.18,2.35-.14.76-.37,1.54-.69,2.33-.03.07-.07.14-.11.2l-4.55,7.07c-.16.25-.42.41-.7.45l-9.54,1.38c-.5.07-.97-.25-1.1-.72-.24-.7-.55-1.41-.89-2.06-.33-.61-.7-1.17-1.08-1.6h0ZM46.08,42.73c.42.56.86,1.07,1.3,1.57.49.56.94,1.23,1.34,1.97.28.52.54,1.07.76,1.64l8.28-1.19,4.27-6.64c.26-.64.44-1.27.55-1.87.12-.67.17-1.31.16-1.93h0c-.02-.6-.09-1.18-.21-1.73-.12-.54-.29-1.06-.5-1.57-.36-.88-.86-1.67-1.46-2.36-.64-.73-1.41-1.35-2.26-1.85-.65-.39-1.35-.7-2.07-.93-.73-.23-1.49-.39-2.25-.46-.77-.07-1.55-.05-2.33.06-.72.1-1.42.28-2.09.55l-.08.03c-.87.35-1.69.85-2.42,1.49-.69.6-1.32,1.35-1.84,2.24h0c-.43.84-.74,1.64-.94,2.42-.2.78-.3,1.54-.31,2.3,0,.74.08,1.49.26,2.22s.43,1.45.77,2.17h0c.32.72.71,1.32,1.11,1.87h0ZM55.6,59.95c-.64.37-1.35.59-2.07.63-.73.04-1.45-.09-2.12-.41-3.26-1.59-2.37-5.31-3.02-8.18l10.01-1.49h0c-.71,3.34.73,7.41-2.8,9.45h0ZM71.23,50.63c0-.07-.02-.14-.02-.22,0-.07,0-.15.02-.22v-4.74c-1.43-.13-2.39-.15-3.81-.02.32-1.02.66-1.95,1.03-2.94,1.65-.06,2.81.03,4.42.27.71.1,1.23.72,1.23,1.42h0v4.8h3.9c.79,0,1.44.65,1.44,1.44v33.12c0,.79-.64,1.44-1.44,1.44-.16,0-.32-.02-.46-.08-4.01-1.15-7.99-1.91-11.94-1.94-3.85-.02-7.69.65-11.55,2.35-.24.16-.53.25-.82.24-.29,0-.58-.08-.82-.24-3.85-1.7-7.7-2.38-11.55-2.35-3.94.02-7.93.79-11.94,1.94-.15.05-.3.08-.46.08-.79.01-1.44-.63-1.44-1.43v-33.13c0-.79.64-1.44,1.44-1.44h4.1l.03-4.8c0-.69.49-1.26,1.14-1.4h0c1.47-.31,2.46-.46,4.09-.45.21.59.45,1.18.72,1.76.19.41.39.79.6,1.16-1.47-.11-2.32-.06-3.7.14l-.16,28.5c3.33-.12,6.59.3,9.66,1.31,2.44.79,4.75,1.96,6.87,3.5h0v-14.03l2.88-.42v14.74c2.44-1.63,4.93-2.97,7.5-3.88,2.92-1.04,5.93-1.54,9.03-1.29v-23.16h.01ZM56.09,81.49c3.18-1,6.35-1.41,9.52-1.39,3.67.02,7.32.63,10.95,1.56v-29.8h-2.46v23.56c0,.79-.64,1.44-1.44,1.44-.12,0-.23-.01-.34-.04-3.14-.5-6.2-.08-9.18.98-2.39.86-4.75,2.14-7.07,3.7h0Z"/>
    </g>
  </g>
</svg>