<?xml version="1.0" encoding="UTF-8"?>
<svg id="Layer_2" data-name="Layer 2" xmlns="http://www.w3.org/2000/svg" viewBox="0 0 106.47 106.47">
  <defs>
    <style>
      .cls-1 {
        fill: #fff;
        fill-rule: evenodd;
      }

      .cls-2 {
        fill: #96a94a;
      }
    </style>
  </defs>
  <g id="Layer_1-2" data-name="Layer 1">
    <g>
      <path class="cls-2" d="M53.24,0h0c29.4,0,53.24,23.83,53.24,53.24h0c0,29.4-23.83,53.24-53.24,53.24h0C23.83,106.47,0,82.64,0,53.24h0C0,23.83,23.83,0,53.24,0Z"/>
      <path class="cls-1" d="M46.08,71.31l3.96,11.64,1.99-6.91-.97-1.07c-.44-.64-.54-1.2-.3-1.69.53-1.05,1.62-.85,2.64-.85s2.4-.2,2.73,1.14c.12.45-.02.92-.34,1.4l-.98,1.07,1.99,6.91,3.58-11.64c2.59,2.33,10.23,2.79,13.08,4.38.9.5,1.71,1.14,2.37,2,1.77,2.35,1.9,2.5,2.36,5.41-.15,1.53-1.02,2.42-2.73,2.56H31.01c-1.72-.13-2.59-1.02-2.73-2.56.46-2.91.59-3.07,2.36-5.41.65-.87,1.47-1.5,2.37-2,2.84-1.59,10.5-2.06,13.08-4.38h0ZM32.63,70.54c-.05-.1-.1-.18-.17-.27-.28-.46-.55-.91-.84-1.42-.28-.56-.55-1.08-.81-1.57-.25-.52-.49-1.08-.7-1.64-.17-.49-.38-1.04-.59-1.71-.31-.94-1.19-1.53-2.12-1.53h-6.02c-.21,0-.41-.03-.56-.1-.14-.07-.31-.17-.41-.31-.14-.14-.25-.28-.31-.41-.07-.14-.1-.35-.1-.55v-7.6c0-.21.03-.38.07-.52.07-.14.17-.31.35-.49.14-.14.28-.25.41-.28.14-.07.35-.1.55-.1h5.54c1.11,0,2.02-.81,2.23-1.85.14-.59.28-1.15.41-1.64.17-.56.35-1.08.56-1.64.21-.52.41-1.08.7-1.6.25-.56.52-1.04.76-1.53.49-.91.31-1.95-.38-2.64l-4.32-4.35s-.03-.03-.07-.03c-.14-.14-.25-.28-.31-.41-.07-.14-.07-.28-.07-.49s.03-.38.1-.52c.07-.17.17-.31.35-.49l5.33-5.3c.17-.17.31-.28.49-.35.14-.07.31-.1.52-.1s.38.03.52.1.31.17.46.31h.03l3.93,3.93c.76.76,1.98.87,2.86.25.46-.28.91-.55,1.42-.84.55-.28,1.08-.55,1.57-.81.52-.25,1.08-.49,1.64-.7.49-.17,1.04-.38,1.71-.59.94-.31,1.53-1.19,1.53-2.12v-6.03c0-.21.03-.41.1-.56.07-.14.17-.28.28-.41.14-.14.28-.25.41-.28.14-.07.35-.1.56-.1h5.96c.21,0,.41.03.56.1.14.03.28.14.41.28.1.14.21.28.28.41.07.14.1.35.1.56v6.03c0,.94.59,1.81,1.53,2.12.66.21,1.22.41,1.71.59.56.21,1.11.46,1.64.7.49.25,1.01.52,1.57.81.52.28.97.55,1.42.84.87.63,2.09.52,2.86-.25l3.93-3.93h.03c.14-.14.31-.25.46-.31.14-.07.31-.1.52-.1s.38.03.52.1c.18.07.31.17.49.35l5.33,5.3c.17.17.28.31.35.49.07.14.1.31.1.52s0,.35-.07.49c-.07.14-.17.28-.31.41t-.07.03l-4.32,4.35c-.7.7-.87,1.74-.38,2.64.25.49.52.97.76,1.53.28.52.49,1.08.7,1.6.21.55.38,1.08.56,1.64.14.49.28,1.04.41,1.64.21,1.04,1.11,1.85,2.23,1.85h5.53c.21,0,.41.03.56.1.14.03.28.14.41.28.18.18.28.35.35.49.03.14.07.31.07.52v7.59c0,.21-.03.41-.1.56-.07.14-.18.28-.31.41-.1.14-.28.25-.41.31-.14.07-.35.1-.55.1h-6.03c-.94,0-1.81.59-2.12,1.53-.21.66-.41,1.22-.59,1.71-.21.56-.46,1.11-.7,1.64-.52,1.03-1.03,2.01-1.64,2.99-.06.09-.12.17-.17.27h5.27c.22-.44.44-.92.68-1.42.28-.63.55-1.25.81-1.88.03-.1.1-.25.14-.35h4.46c.8,0,1.57-.14,2.26-.41.7-.28,1.36-.73,1.92-1.29s1.01-1.19,1.29-1.92.41-1.47.41-2.26v-7.59c0-.76-.17-1.53-.46-2.23-.28-.7-.7-1.32-1.25-1.88l-.03-.03c-.56-.56-1.19-1.01-1.88-1.29-.7-.31-1.47-.46-2.26-.46h-3.8c0-.1-.03-.17-.07-.28-.21-.66-.41-1.32-.66-1.95-.28-.66-.52-1.29-.8-1.88-.03-.07-.1-.17-.14-.28l3.14-3.17c.59-.52,1.01-1.15,1.32-1.85.28-.7.46-1.47.46-2.26s-.14-1.53-.46-2.26c-.31-.7-.73-1.32-1.29-1.88h-.03l-5.33-5.3c-.55-.55-1.19-.97-1.92-1.29-.73-.31-1.47-.46-2.26-.46s-1.53.14-2.26.46c-.73.28-1.36.73-1.92,1.29l-2.72,2.68-.21-.1c-.56-.31-1.19-.59-1.85-.91-.63-.28-1.25-.55-1.88-.81-.1-.03-.25-.1-.35-.14v-4.46c0-.81-.14-1.57-.41-2.26-.28-.7-.73-1.36-1.29-1.92-.59-.56-1.22-1.01-1.92-1.29-.73-.28-1.46-.41-2.27-.41h-6.11c-.81,0-1.53.14-2.26.41-.69.28-1.32.73-1.92,1.29-.56.56-1.01,1.22-1.29,1.92-.28.69-.41,1.47-.41,2.26v4.46c-.1.03-.25.1-.35.14-.63.25-1.25.52-1.88.81-.66.31-1.29.59-1.85.91l-.21.1-2.72-2.68c-.55-.55-1.19-1.01-1.92-1.29-.73-.31-1.5-.46-2.26-.46-.81,0-1.53.14-2.26.46-.73.31-1.36.73-1.92,1.29l-5.33,5.3h-.03c-.55.55-.97,1.19-1.29,1.88-.31.73-.46,1.46-.46,2.25s.17,1.57.46,2.26c.31.7.73,1.32,1.32,1.85l3.13,3.17c-.03.1-.1.21-.14.28-.28.59-.52,1.22-.81,1.88-.25.63-.46,1.29-.66,1.95-.03.1-.07.17-.07.28h-3.79c-.81,0-1.57.14-2.26.46-.7.28-1.32.73-1.88,1.29l-.03.03c-.56.55-.97,1.19-1.25,1.88-.3.71-.47,1.48-.47,2.25v7.59c0,.81.14,1.53.41,2.26.28.73.73,1.36,1.29,1.92s1.22,1.01,1.92,1.29c.7.28,1.47.41,2.26.41h4.46c.03.1.1.25.14.35.25.63.52,1.25.81,1.88.24.5.46.98.68,1.42h5.26ZM44.29,54.66c-.49.02-.86.12-1.11.29-.15.1-.25.22-.32.37-.08.16-.11.36-.1.59.02.68.38,1.55,1.05,2.56v.02h0l2.21,3.52c.89,1.41,1.82,2.85,2.97,3.9,1.11,1.02,2.46,1.7,4.24,1.71,1.93,0,3.34-.71,4.48-1.79,1.19-1.11,2.13-2.64,3.06-4.17l2.49-4.1c.46-1.06.63-1.77.53-2.19-.07-.25-.34-.37-.8-.39-.1,0-.2,0-.3,0-.11,0-.23.01-.35.02-.07,0-.13,0-.19-.01-.22.01-.45,0-.68-.04l.85-3.77c-4.55-.06-7.67-.85-11.35-3.21-1.21-.77-1.58-1.66-2.79-1.57-.91.17-1.68.58-2.3,1.24-.58.63-1.03,1.49-1.32,2.59l.49,4.45c-.26.03-.51.02-.75-.01h0ZM63.85,53.86c.62.18,1.01.58,1.16,1.21.18.7-.02,1.68-.6,3.02h0s-.02.05-.04.07l-2.52,4.15c-.97,1.6-1.96,3.2-3.28,4.43-1.36,1.27-3.04,2.12-5.34,2.12-2.14,0-3.76-.83-5.08-2.04-1.28-1.17-2.26-2.68-3.19-4.16l-2.21-3.52c-.81-1.21-1.23-2.31-1.26-3.21-.01-.42.06-.81.22-1.15.17-.36.42-.65.76-.88.16-.1.34-.2.54-.27-.14-1.9-.2-4.31-.1-6.32.05-.47.14-.95.27-1.43.57-2.02,1.98-3.65,3.74-4.76.62-.39,1.29-.72,2.01-.98,4.24-1.55,9.88-.7,12.89,2.56,1.23,1.33,2,3.09,2.17,5.42l-.14,5.76h0Z"/>
    </g>
  </g>
</svg>