<?xml version="1.0" encoding="UTF-8"?>
<svg id="Layer_2" data-name="Layer 2" xmlns="http://www.w3.org/2000/svg" viewBox="0 0 106.47 106.47">
  <defs>
    <style>
      .cls-1 {
        fill: #96a94a;
      }

      .cls-2 {
        fill: #fefefe;
      }
    </style>
  </defs>
  <g id="Layer_1-2" data-name="Layer 1">
    <g>
      <path class="cls-1" d="M53.24,0h0c29.4,0,53.24,23.83,53.24,53.24h0c0,29.4-23.83,53.24-53.24,53.24h0C23.83,106.47,0,82.64,0,53.24h0C0,23.83,23.83,0,53.24,0Z"/>
      <g>
        <g>
          <path class="cls-2" d="M60.02,32.59c0,3.83-3.11,6.94-6.94,6.94s-6.94-3.11-6.94-6.94,3.11-6.94,6.94-6.94,6.94,3.11,6.94,6.94ZM57.38,32.59c0-2.37-1.92-4.29-4.29-4.29s-4.29,1.92-4.29,4.29,1.92,4.29,4.29,4.29,4.29-1.92,4.29-4.29Z"/>
          <path class="cls-2" d="M33.65,24.16l7.73,7.73-7.73,7.73-7.73-7.73,7.73-7.73ZM33.71,27.85l-4.04,4.04,4.04,4.03,4.04-4.04-4.04-4.03Z"/>
        </g>
        <g>
          <g>
            <path class="cls-2" d="M79,41.1c2.49.21,3.86,1.57,4.48,3.95v13.49c-.41,1.06-.98,2.1-1.91,2.78-.76.55-1.33.32-1.46,1.4l-.04,15.14c-.55,2.46-3.24,3.63-5.29,1.98l-1.23-1.37c-1.8,3.43-6.26,2.6-6.56-1.36-.25-3.28.17-6.91.04-10.23,1.03-1.8,2.64-3.02,2.7-5.35-.31-5.37.39-11.17,0-16.49-.1-1.36-.69-2.62-.91-3.95h10.19Z"/>
            <path class="cls-2" d="M78.55,25.79l-7.53,12.85-7.27-12.85h14.79ZM74,28.51h-5.71l2.79,4.66.33-.22,2.59-4.45Z"/>
          </g>
          <g>
            <path class="cls-2" d="M43.05,65.24c-2.11-.28-3.43-2.37-3.57-4.34-.38-5.1.29-10.68,0-15.83.44-3.28,2.51-4.07,5.51-4.23.71-.04,3.75-.11,4.16.27l4.09,11.16.43-.29c1.34-3.24,2.24-6.93,3.62-10.12.56-1.29.76-.87,1.85-.87,2.68,0,6.3-.61,7.69,2.3.6,1.25.53,4.39.56,5.93.07,2.9-.05,5.81-.14,8.69-.08,2.52.61,5.22-1.98,6.71-.2.12-1.33.62-1.45.62h-2.14v20.06c-.11,1.38-.37,2.54-1.5,3.43-2.6,2.07-5.07,1.18-6.75-1.42l-.97,1.24c-3.16,3.1-7.63.35-7.41-3.76v-19.54c-.63-.06-1.39.08-2.01,0Z"/>
            <path class="cls-2" d="M38.19,41.1c-.11.63-.51,1.16-.72,1.82-.19.61-.4,1.52-.45,2.14-.43,5.25.32,11.05,0,16.35.1,1.21.64,2.71,1.38,3.68s1.39.99,1.57,2.45c.23,1.88.27,8.85-.15,10.55-.54,2.21-3.16,3.19-5.05,1.92-.63-.43-.84-1.13-1.45-1.54-1.36,3-5.55,2.74-6.39-.48l-.04-15.27c-.14-1.16-.78-.91-1.54-1.45-.87-.61-1.5-1.73-1.82-2.73.28-4.39-.4-9.3-.01-13.62.15-1.7,2.23-3.82,3.96-3.82h10.71Z"/>
          </g>
        </g>
      </g>
    </g>
  </g>
</svg>