<svg width="50" height="47" viewBox="0 0 50 47" fill="none" xmlns="http://www.w3.org/2000/svg">
<path fill-rule="evenodd" clip-rule="evenodd" d="M0.609769 23.5002V19.4738H4.99595V19.4758C5.51628 17.067 6.50203 14.7758 7.90244 12.7193L4.80083 9.73089L10.7091 4.03823L13.8128 7.0286L13.8107 7.02664C15.9449 5.67734 18.3229 4.72756 20.8211 4.22623V0.00012207H29.177L29.179 4.22623C31.677 4.72756 34.055 5.67734 36.1893 7.02664L39.293 4.03627L45.2013 9.72894L42.0976 12.7193C43.498 14.7756 44.4838 17.0668 45.0041 19.4738H49.3903V23.5001H35.2114C35.2114 19.9849 33.2643 16.7381 30.1057 14.9794C26.9452 13.2228 23.0548 13.2228 19.8944 14.9794C16.7358 16.738 14.7887 19.985 14.7887 23.5001L0.609769 23.5002ZM35.2114 26.1008C34.874 26.1008 34.6016 25.8365 34.6016 25.5133C34.6016 25.1882 34.874 24.9258 35.2114 24.9258H49.3902C49.7276 24.9258 50 25.1882 50 25.5133C50 25.8365 49.7276 26.1008 49.3902 26.1008H35.2114ZM0.609769 26.1008C0.272369 26.1008 0 25.8365 0 25.5133C0 25.1882 0.272359 24.9258 0.609769 24.9258H14.7886C15.126 24.9258 15.3984 25.1882 15.3984 25.5133C15.3984 25.8365 15.126 26.1008 14.7886 26.1008H0.609769ZM35.547 39.3802C35.5165 36.5739 33.1994 34.2982 30.2725 34.2982H28.7887C26.5244 35.8649 23.4757 35.8649 21.2117 34.2982H19.7259C16.7991 34.2982 14.4821 36.5757 14.4514 39.3802L14.4534 47H19.118L19.116 42.0003C19.116 41.6753 19.3904 41.4128 19.7258 41.4128C20.0632 41.4128 20.3355 41.6753 20.3355 42.0003V47H29.6629L29.6649 42.0003C29.6649 41.6753 29.9373 41.4128 30.2747 41.4128C30.6101 41.4128 30.8845 41.6753 30.8845 42.0003V47H35.5491L35.547 39.3802ZM25 24.1366C27.1321 24.1366 29.0569 25.3743 29.872 27.2719C30.689 29.1715 30.2378 31.357 28.7297 32.8102C27.2216 34.2632 24.9533 34.698 22.9817 33.9107C21.0121 33.1255 19.7256 31.2729 19.7256 29.2166C19.7256 26.4103 22.0873 24.1366 25 24.1366ZM36.4919 37.604C36.8273 37.5178 37.1748 37.4728 37.5244 37.4728H38.1443C40.0712 39.0395 42.8883 39.0395 44.8149 37.4728H45.4348C47.6177 37.4787 49.3861 39.1824 49.3901 41.2857V46.9999H46.0446V43.2497C46.0446 42.9246 45.7722 42.6621 45.4348 42.6621C45.0974 42.6621 44.8251 42.9246 44.8251 43.2497V46.9999H38.1342V43.2497C38.1342 42.9246 37.8618 42.6621 37.5244 42.6621C37.187 42.6621 36.9147 42.9246 36.9147 43.2497V46.9999H36.7663V39.3681C36.7602 38.7708 36.6687 38.1778 36.4919 37.604ZM0.609769 41.2857C0.613834 39.1824 2.3821 37.4786 4.56507 37.4728H5.18499C7.1118 39.0395 9.92889 39.0395 11.8556 37.4728H12.4755C12.8251 37.4728 13.1726 37.5178 13.51 37.604H13.508C13.3312 38.1797 13.2397 38.7751 13.2336 39.3743V47.0001H13.0852V43.2499C13.0852 42.9248 12.8129 42.6624 12.4755 42.6624C12.1381 42.6624 11.8657 42.9248 11.8657 43.2499V47.0001H5.17484V43.2499C5.17484 42.9248 4.90248 42.6624 4.56507 42.6624C4.22767 42.6624 3.9553 42.9248 3.9553 43.2499V47.0001H0.609765L0.609769 41.2857ZM41.4797 29.8527C39.8801 29.8527 38.437 30.781 37.8253 32.2047C37.2135 33.6284 37.5529 35.2676 38.683 36.3564C39.8151 37.4472 41.5163 37.7722 42.994 37.1828C44.4716 36.5933 45.435 35.2048 45.435 33.6617C45.435 31.5584 43.6647 29.8527 41.4797 29.8527ZM8.52027 29.8527C6.92069 29.8508 5.47756 30.781 4.86582 32.2047C4.25402 33.6284 4.59143 35.2676 5.72352 36.3564C6.85362 37.4472 8.55482 37.7722 10.0345 37.1828C11.5121 36.5933 12.4756 35.2048 12.4756 33.6617C12.4756 31.5584 10.7053 29.8527 8.52027 29.8527Z" fill="#005581"/>
</svg>
