<svg width="44" height="44" viewBox="0 0 44 44" fill="none" xmlns="http://www.w3.org/2000/svg">
<path d="M32.211 31.5181L29.0326 21.7364L40.4612 13.4339H26.3354L21.9696 0L17.606 13.4339H3.48047L14.907 21.7364L11.7296 31.5181C12.2867 32.0292 12.7672 32.6192 13.1545 33.2731L18.4905 29.3954C16.8367 28.2758 15.7477 26.3827 15.7477 24.2397C15.7477 20.8081 18.5392 18.017 21.9702 18.017C25.4016 18.017 28.1935 20.8081 28.1935 24.2397C28.1935 26.3833 27.104 28.277 25.4497 29.3966L30.7864 33.2737C31.1736 32.6192 31.6539 32.0292 32.211 31.5181Z" fill="#96A94A"/>
<path d="M6.55233 29.3428C9.3707 29.3428 11.6554 27.0581 11.6554 24.2397C11.6554 21.4213 9.3707 19.1366 6.55233 19.1366C3.73396 19.1366 1.44922 21.4213 1.44922 24.2397C1.44922 27.0581 3.73396 29.3428 6.55233 29.3428Z" fill="#96A94A"/>
<path d="M6.55252 30.613C2.93407 30.613 0 33.5471 0 37.1656V43.138H13.1059V37.1656C13.1059 33.5471 10.1722 30.613 6.55252 30.613Z" fill="#96A94A"/>
<path d="M21.9664 29.3428C24.7848 29.3428 27.0695 27.0581 27.0695 24.2397C27.0695 21.4213 24.7848 19.1366 21.9664 19.1366C19.148 19.1366 16.8633 21.4213 16.8633 24.2397C16.8633 27.0581 19.148 29.3428 21.9664 29.3428Z" fill="#96A94A"/>
<path d="M15.4141 37.1656V43.138H28.5203V37.1656C28.5203 33.5471 25.5856 30.613 21.9666 30.613C18.3475 30.613 15.4141 33.5471 15.4141 37.1656Z" fill="#96A94A"/>
<path d="M37.3839 29.3424C40.202 29.3424 42.4866 27.0579 42.4866 24.2397C42.4866 21.4216 40.202 19.1371 37.3839 19.1371C34.5658 19.1371 32.2812 21.4216 32.2812 24.2397C32.2812 27.0579 34.5658 29.3424 37.3839 29.3424Z" fill="#96A94A"/>
<path d="M37.3846 30.613C33.7658 30.613 30.832 33.5471 30.832 37.1656V43.138H43.9374V37.1656C43.9374 33.5471 41.0039 30.613 37.3846 30.613Z" fill="#96A94A"/>
</svg>
