<svg width="46" height="49" viewBox="0 0 46 49" fill="none" xmlns="http://www.w3.org/2000/svg">
<path d="M28.8646 25.0012C28.8646 28.2335 26.2345 30.8637 23.0025 30.8637C19.7706 30.8637 17.1405 28.2334 17.1405 25.0012C17.1405 21.7691 19.7706 19.1387 23.0025 19.1387C26.2345 19.1387 28.8646 21.7691 28.8646 25.0012ZM36.3999 29.1073L35.3802 31.5691L36.6672 35.0665L33.069 38.665L29.5719 37.3779L27.1102 38.3976L25.5469 41.7827H20.4573L18.8941 38.3976L16.4324 37.3779L12.9375 38.6672L9.33935 35.0688L10.6241 31.5714L9.60666 29.1096L6.22186 27.5461V22.4584L9.60666 20.895L10.6241 18.4332L9.33935 14.9358L12.9375 11.3373L16.4324 12.6267L18.8941 11.6069L20.4573 8.22186H25.5469L27.1102 11.6069L29.5719 12.6267L33.069 11.3396L36.6672 14.938L35.3802 18.4354L36.3999 20.8972L39.7824 22.4561V27.5461L36.3999 29.1095V29.1073ZM30.3803 25.0012C30.3803 20.9333 27.0696 17.6224 23.002 17.6224C18.9344 17.6224 15.6237 20.9333 15.6237 25.0012C15.6237 29.0691 18.9344 32.3801 23.002 32.3801C27.0696 32.3801 30.3803 29.0691 30.3803 25.0012ZM45.211 19.0508C44.3418 15.805 42.8167 12.8559 40.6785 10.2884C40.4112 9.96716 39.9328 9.92223 39.6116 10.1895C39.2904 10.4568 39.2455 10.9353 39.5128 11.2565C41.5095 13.6555 42.9335 16.4093 43.7466 19.4416C45.2312 24.983 44.4698 30.7715 41.6016 35.7404C38.7334 40.709 34.102 44.2624 28.5585 45.7471C22.3819 47.4026 15.9426 46.2615 10.7268 42.6248L12.463 42.1599C12.8673 42.0521 13.1054 41.6365 12.9976 41.2322C12.8898 40.8278 12.4742 40.5875 12.0699 40.6976L8.46278 41.6634C8.26962 41.7151 8.10341 41.8431 8.00234 42.0161C7.90127 42.1891 7.87431 42.3957 7.92597 42.5911L8.89403 46.2008C8.98387 46.54 9.29158 46.7624 9.62398 46.7624C9.68912 46.7624 9.75425 46.7534 9.82164 46.7354C10.2259 46.6276 10.464 46.212 10.3562 45.8077L9.83062 43.8445C12.3777 45.6212 15.2908 46.8837 18.3233 47.5148C19.8753 47.8383 21.4341 48 22.9928 48C24.9851 48 26.9774 47.7349 28.9492 47.2071C34.8808 45.619 39.8401 41.8139 42.9106 36.4948C45.981 31.1756 46.7962 24.9808 45.206 19.0459L45.211 19.0508ZM2.2574 30.563C-0.806216 19.1209 6.00606 7.32119 17.4429 4.2574C23.6195 2.60193 30.0634 3.74301 35.2769 7.37742L33.5385 7.84239C33.1342 7.95021 32.8961 8.36577 33.0039 8.7701C33.0938 9.10927 33.4015 9.33165 33.7339 9.33165C33.799 9.33165 33.8641 9.32267 33.9293 9.3047L37.5364 8.33881C37.9407 8.23099 38.1788 7.81544 38.0732 7.41111L37.1074 3.80144C36.9996 3.39712 36.5841 3.15677 36.1798 3.26459C35.7755 3.37242 35.5352 3.78797 35.643 4.1923L36.1686 6.15552C33.6193 4.37878 30.7016 3.11411 27.6696 2.48295C24.1343 1.74846 20.5633 1.85173 17.0501 2.79293C11.1184 4.381 6.16086 8.18612 3.09097 13.5053C0.0210886 18.8244 -0.796953 25.0192 0.793246 30.9541C1.6647 34.2021 3.18981 37.1513 5.32804 39.7165C5.47852 39.8962 5.69415 39.9883 5.90976 39.9883C6.08045 39.9883 6.25341 39.9299 6.39491 39.8131C6.71609 39.5458 6.75877 39.0673 6.49149 38.7461C4.49471 36.3494 3.0685 33.5955 2.25541 30.5611L2.2574 30.563Z" fill="#96A94A"/>
</svg>
