<svg width="48" height="49" viewBox="0 0 48 49" fill="none" xmlns="http://www.w3.org/2000/svg">
<path d="M6.23074 24.1549V43.3385C6.23074 43.5328 6.07555 43.6914 5.87785 43.6914H1.3529C1.15863 43.6914 1 43.5328 1 43.3385V24.1549C1 23.9606 1.15861 23.802 1.3529 23.802H5.87785C6.07562 23.802 6.23074 23.9612 6.23074 24.1549ZM7.90739 25.7432H7.09919C6.90491 25.7432 6.74629 25.8984 6.74629 26.0961V41.3968C6.74629 41.5911 6.90491 41.7497 7.09919 41.7497H7.90739C8.90635 41.7497 9.71807 40.938 9.71807 39.9425V27.5504C9.71807 26.5519 8.90635 25.7432 7.90739 25.7432ZM44.5803 26.0364C44.4534 26.0364 44.3298 26.061 44.1888 26.1142L33.9597 30.7591C33.8257 30.8192 33.7408 30.9639 33.7549 31.112C33.7625 31.1647 33.7625 31.2215 33.7625 31.2742V31.7119C33.7625 32.7957 33.0531 33.6742 32.1777 33.6742H22.2875C21.6379 33.6742 21.0169 33.865 20.4768 34.2109C20.8578 33.6145 21.4511 33.2365 22.1037 33.2365H31.1963C31.7786 33.2365 32.3187 32.9684 32.7173 32.488C33.0983 32.0327 33.3102 31.4328 33.3172 30.7973C33.3248 30.0915 33.0597 29.4103 32.5828 28.9299C32.1767 28.5203 31.6651 28.2944 31.1356 28.2944H22.9938C21.8116 28.2944 20.6078 28.1358 19.4111 27.825C17.5688 27.3416 14.5332 26.7698 10.5519 26.7698C10.3542 26.7698 10.199 26.925 10.199 27.1227V39.2433C10.199 39.3985 10.3015 39.5365 10.4495 39.5821L23.2975 43.4013C23.947 43.592 24.6072 43.6874 25.2668 43.6874C26.8305 43.6874 28.3801 43.1543 29.7069 42.1237L45.361 29.9931C45.6185 29.7918 45.8268 29.5238 45.9679 29.2166C46.1054 28.9093 46.1797 28.5634 46.1797 28.2176C46.1797 27.187 45.4944 26.0364 44.5803 26.0364ZM46.1791 5.35286V20.5371C46.1791 20.7313 46.0205 20.89 45.8262 20.89H30.7404L26.9142 25.6162C26.8471 25.701 26.745 25.7467 26.6392 25.7467C26.6004 25.7467 26.5614 25.7391 26.5227 25.7257C26.3817 25.6765 26.2862 25.542 26.2862 25.3939V20.89H23.6919C23.4977 20.89 23.3391 20.7314 23.3391 20.5371V5.3529C23.3391 5.15863 23.4977 5 23.6919 5H45.8262C46.0205 5 46.1791 5.15858 46.1791 5.35286ZM29.1275 16.1888H42.0387C42.233 16.1888 42.3916 16.0302 42.3916 15.8359C42.3916 15.6417 42.233 15.483 42.0387 15.483H29.1275C28.9333 15.483 28.7746 15.6416 28.7746 15.8359C28.7746 16.0297 28.9332 16.1888 29.1275 16.1888ZM31.6194 13.2979H42.0387C42.233 13.2979 42.3916 13.1392 42.3916 12.945C42.3916 12.7507 42.233 12.5921 42.0387 12.5921H31.6194C31.4251 12.5921 31.2665 12.7507 31.2665 12.945C31.2665 13.1392 31.4251 13.2979 31.6194 13.2979ZM42.3916 10.054C42.3916 9.85973 42.233 9.7011 42.0387 9.7011H34.9586C34.7644 9.7011 34.6057 9.85971 34.6057 10.054C34.6057 10.2483 34.7644 10.4069 34.9586 10.4069H42.0392C42.233 10.4074 42.3916 10.2483 42.3916 10.054Z" fill="#96A94A"/>
</svg>
