<svg width="50" height="49" viewBox="0 0 50 49" fill="none" xmlns="http://www.w3.org/2000/svg">
<path d="M29.2085 36.4933L26.6615 26.3054C26.5718 25.9452 26.3642 25.6254 26.0717 25.3969C25.7793 25.1683 25.4188 25.0442 25.0476 25.0442C24.6764 25.0442 24.3159 25.1683 24.0235 25.3969C23.731 25.6254 23.5234 25.9452 23.4337 26.3054L20.8867 36.4933C19.8101 37.3553 19.0279 38.5305 18.6481 39.8563C18.2682 41.1822 18.3096 42.5932 18.7664 43.8946C19.2232 45.1959 20.0729 46.3232 21.1981 47.1207C22.3233 47.9183 23.6684 48.3466 25.0476 48.3466C26.4268 48.3466 27.7719 47.9183 28.8971 47.1207C30.0223 46.3232 30.872 45.1959 31.3288 43.8946C31.7856 42.5932 31.827 41.1822 31.4471 39.8563C31.0673 38.5305 30.2851 37.3553 29.2085 36.4933Z" fill="#005581"/>
<path d="M36.3227 17.9583C37.1225 19.2269 37.7006 20.6223 38.0325 22.0847C38.1164 22.4526 38.3227 22.7812 38.6177 23.0165C38.9126 23.2518 39.2788 23.38 39.6561 23.3801H46.4285C46.6685 23.3801 46.9056 23.3282 47.1237 23.2279C47.3417 23.1277 47.5355 22.9815 47.6918 22.7993C47.848 22.6171 47.963 22.4033 48.0288 22.1725C48.0947 21.9418 48.1098 21.6995 48.0732 21.4623C47.5016 17.7865 46.0576 14.3011 43.8622 11.298C43.7207 11.1044 43.5388 10.9437 43.3293 10.827C43.1197 10.7103 42.8874 10.6404 42.6482 10.622C42.4088 10.6048 42.1686 10.639 41.9435 10.7223C41.7184 10.8055 41.5137 10.9359 41.3431 11.1046L36.5535 15.8943C36.2868 16.1612 36.1187 16.5108 36.0767 16.8859C36.0348 17.2609 36.1215 17.639 36.3227 17.9583Z" fill="#005581"/>
<path d="M38.9864 8.74966C39.1562 8.57999 39.2872 8.37559 39.3706 8.1505C39.4539 7.9254 39.4875 7.68493 39.4692 7.44561C39.4508 7.20629 39.3809 6.97377 39.2641 6.76403C39.1474 6.5543 38.9867 6.3723 38.793 6.23054C35.7899 4.03508 32.3045 2.59108 28.6287 2.01946C28.3915 1.98286 28.1492 1.99801 27.9184 2.06386C27.6876 2.12971 27.4738 2.24469 27.2917 2.40094C27.1095 2.55718 26.9633 2.75098 26.863 2.96904C26.7628 3.1871 26.7109 3.42426 26.7109 3.66426V10.4366C26.711 10.814 26.8392 11.1801 27.0745 11.4751C27.3098 11.77 27.6384 11.9764 28.0063 12.0602C29.4687 12.3921 30.8641 12.9703 32.1327 13.77C32.4519 13.9715 32.8301 14.0584 33.2052 14.0165C33.5803 13.9745 33.93 13.8062 34.1968 13.5392L38.9864 8.74966Z" fill="#005581"/>
<path d="M46.4252 26.7085H39.6529C39.2755 26.7086 38.9094 26.8368 38.6144 27.0721C38.3195 27.3074 38.1131 27.6359 38.0293 28.0038C37.473 30.4495 36.2356 32.6876 34.4602 34.4593C34.3057 34.6138 34.183 34.7972 34.0994 34.9991C34.0157 35.201 33.9727 35.4174 33.9727 35.6359C33.9727 35.8545 34.0157 36.0709 34.0994 36.2728C34.183 36.4747 34.3057 36.6581 34.4602 36.8126L39.1669 41.5193C39.3214 41.6739 39.5048 41.7965 39.7067 41.8801C39.9086 41.9638 40.125 42.0069 40.3436 42.0069C40.5621 42.0069 40.7785 41.9638 40.9804 41.8801C41.1823 41.7965 41.3658 41.6739 41.5203 41.5193C45.0268 38.0332 47.3226 33.5141 48.07 28.6263C48.1066 28.3891 48.0915 28.1468 48.0256 27.916C47.9598 27.6852 47.8448 27.4714 47.6886 27.2892C47.5323 27.107 47.3385 26.9608 47.1205 26.8606C46.9024 26.7604 46.6652 26.7085 46.4252 26.7085Z" fill="#005581"/>
<path d="M3.66426 23.3802H10.4382C10.8158 23.3801 11.1822 23.2516 11.4772 23.016C11.7722 22.7803 11.9783 22.4514 12.0619 22.0832C12.3926 20.6204 12.9709 19.2248 13.7716 17.9567C13.9721 17.6375 14.0584 17.2596 14.0161 16.8849C13.9739 16.5103 13.8058 16.161 13.5392 15.8944L8.74966 11.1047C8.58062 10.9337 8.37616 10.8019 8.15068 10.7185C7.9252 10.6352 7.68418 10.6022 7.44459 10.6221C7.20542 10.6404 6.97306 10.7104 6.76349 10.8271C6.55392 10.9438 6.37211 11.1045 6.23054 11.2982C4.03509 14.3012 2.59109 17.7866 2.01946 21.4624C1.98286 21.6996 1.99801 21.9419 2.06386 22.1727C2.12971 22.4034 2.24469 22.6173 2.40094 22.7994C2.55718 22.9816 2.75098 23.1278 2.96904 23.2281C3.1871 23.3283 3.42426 23.3802 3.66426 23.3802Z" fill="#005581"/>
<path d="M23.3764 10.4366V3.66426C23.3764 3.42426 23.3245 3.1871 23.2243 2.96904C23.1241 2.75098 22.9779 2.55718 22.7957 2.40094C22.6135 2.24469 22.3997 2.12971 22.1689 2.06386C21.9381 1.99801 21.6958 1.98286 21.4586 2.01946C17.7828 2.59108 14.2974 4.03507 11.2944 6.23051C11.1007 6.37226 10.9399 6.55426 10.8232 6.764C10.7065 6.97374 10.6365 7.20626 10.6182 7.44558C10.5998 7.68491 10.6334 7.92538 10.7168 8.15049C10.8001 8.37559 10.9312 8.57999 11.1009 8.74966L15.8906 13.5392C16.1574 13.8062 16.5071 13.9745 16.8822 14.0165C17.2573 14.0584 17.6355 13.9715 17.9547 13.77C19.2233 12.9703 20.6187 12.3921 22.0812 12.0602C22.4491 11.9763 22.7775 11.77 23.0129 11.475C23.2482 11.1801 23.3763 10.814 23.3764 10.4366Z" fill="#005581"/>
<path d="M12.0619 28.0038C11.978 27.6359 11.7717 27.3074 11.4767 27.0721C11.1817 26.8368 10.8156 26.7086 10.4382 26.7085H3.66426C3.42426 26.7085 3.1871 26.7604 2.96904 26.8606C2.75098 26.9608 2.55718 27.107 2.40094 27.2892C2.24469 27.4714 2.12971 27.6852 2.06386 27.916C1.99801 28.1468 1.98286 28.3891 2.01946 28.6263C2.76794 33.5137 5.0635 38.0325 8.56917 41.5193C8.72366 41.6739 8.9071 41.7965 9.10899 41.8801C9.31089 41.9638 9.52729 42.0069 9.74584 42.0069C9.96438 42.0069 10.1808 41.9638 10.3827 41.8801C10.5846 41.7965 10.768 41.6739 10.9225 41.5193L15.6308 36.8126C15.7854 36.6581 15.908 36.4747 15.9917 36.2728C16.0753 36.0709 16.1184 35.8545 16.1184 35.6359C16.1184 35.4174 16.0753 35.201 15.9917 34.9991C15.908 34.7972 15.7854 34.6138 15.6308 34.4593C13.8546 32.6883 12.617 30.4499 12.0619 28.0038Z" fill="#005581"/>
</svg>
