<svg width="26" height="26" viewBox="0 0 26 26" fill="none" xmlns="http://www.w3.org/2000/svg">
<path d="M14.0645 0L15.4951 0.218015C25.9802 2.27647 29.7191 15.6222 21.5951 22.7828C14.264 29.2445 2.54118 25.4624 0.344265 15.9851L0.0152856 14.0562C0.0508999 13.3421 -0.0327032 12.5826 0.0152856 11.8742C0.432999 5.72364 5.78752 0.402512 11.9343 0.000302024H14.0645V0ZM12.5431 6.44442V0.913427C10.1485 1.40351 8.88083 3.84726 8.07981 5.93652C9.5412 6.26203 11.0409 6.46616 12.5431 6.44472V6.44442ZM13.4561 6.44442C14.1587 6.45891 14.8619 6.41935 15.5603 6.34235C16.1196 6.28076 17.2399 6.15454 17.7394 5.98544C17.7901 5.96823 17.8414 5.97185 17.8659 5.90814C17.102 3.83156 15.8012 1.42525 13.4561 0.913427V6.44442ZM9.85479 1.31956C7.73695 1.86098 5.79054 3.02714 4.27663 4.5919C5.18841 5.08379 6.16418 5.45822 7.16863 5.71247C7.74117 4.06588 8.6267 2.55729 9.85479 1.31926V1.31956ZM18.7822 5.73421C19.7707 5.43134 20.7763 5.1167 21.6715 4.5922C20.1908 3.01174 18.2426 1.87487 16.144 1.31956C16.2521 1.57381 16.5032 1.72328 16.6773 1.92741C17.6223 3.03439 18.3533 4.33885 18.7822 5.73421ZM25.0708 12.5334C24.9948 9.88675 23.9786 7.31195 22.3077 5.28338C21.3244 5.83959 20.2617 6.25116 19.1706 6.55433C19.1338 6.56762 19.1018 6.58815 19.0901 6.62831C19.068 6.70289 19.3828 7.80595 19.4251 8.00766C19.7411 9.50568 19.8983 11.0025 19.9481 12.5334H25.0708ZM6.051 12.5334C6.04829 10.5348 6.35131 8.53548 6.90393 6.61985C6.38904 6.40909 5.82041 6.27019 5.29103 6.06274C5.04807 5.96762 3.77893 5.32717 3.6911 5.32868C3.58879 5.33019 3.13214 5.96098 3.03797 6.09354C1.72417 7.94455 1.00675 10.2714 0.877876 12.5334H6.0513H6.051ZM12.5431 7.35784C10.9398 7.36992 9.33295 7.16157 7.77588 6.79982C7.30625 8.67439 6.95041 10.5879 6.964 12.5337H12.5431V7.35784ZM19.0351 12.5334C18.9763 11.5282 18.9262 10.5221 18.7735 9.52229C18.6328 8.60192 18.4016 7.69876 18.1722 6.79892C16.6318 7.15946 15.0427 7.37294 13.4561 7.35754V12.5334H19.0351ZM6.051 13.4469H0.877574C1.00192 16.0941 1.95355 18.6698 3.64704 20.699C4.69706 20.1878 5.77031 19.7053 6.91359 19.4341C6.35976 17.4937 6.04376 15.4718 6.0513 13.4469H6.051ZM12.5431 13.4469H6.964C6.95072 15.39 7.28905 17.3092 7.7789 19.1771C9.35317 18.8851 10.9374 18.6584 12.5431 18.6224V13.4466V13.4469ZM19.0351 13.4469H13.4561V18.6227C14.2233 18.6822 14.9974 18.6901 15.7631 18.7755C16.5717 18.8658 17.3788 19.0754 18.1759 19.1599C18.7282 17.3077 18.9648 15.3746 19.0351 13.4469ZM25.0708 13.4469H19.9481C19.8938 15.4612 19.6137 17.4614 19.0816 19.4027C20.1878 19.7545 21.2658 20.1655 22.299 20.6951C24.0157 18.7052 24.9875 16.0781 25.0705 13.4469H25.0708ZM12.5431 19.5362C11.0424 19.5902 9.54392 19.7412 8.07921 20.0697C8.88898 22.1282 10.13 24.6541 12.5431 25.0675V19.5365V19.5362ZM13.4561 19.5362V25.0672C15.8223 24.6317 17.1101 22.1258 17.8692 20.0694C16.4217 19.7361 14.9404 19.5902 13.4561 19.5362ZM7.21722 20.2971C6.19557 20.5495 5.18388 20.9043 4.27663 21.4391C5.81227 22.9963 7.73423 24.1459 9.85479 24.7114C8.6768 23.4562 7.66813 21.9799 7.21722 20.2971ZM21.6724 21.3636C21.0555 21.1124 20.454 20.8177 19.8223 20.6009C19.6674 20.5477 18.851 20.2681 18.7795 20.3185C18.2513 21.9805 17.3084 23.4731 16.0933 24.7114C17.7793 24.2543 19.3901 23.4411 20.7325 22.3254C20.9544 22.1412 21.475 21.7042 21.6223 21.4904C21.6519 21.4476 21.6929 21.4403 21.6721 21.3636H21.6724Z" fill="#276E93"/>
</svg>
