<svg width="37" height="37" viewBox="0 0 37 37" fill="none" xmlns="http://www.w3.org/2000/svg">
<path d="M18.5 6.1665C19.8181 6.1665 21.1701 6.20042 22.4806 6.25592L24.0284 6.32992L25.5099 6.4178L26.8974 6.51184L28.1647 6.6105C29.5401 6.71517 30.8345 7.30184 31.8199 8.26718C32.8053 9.23252 33.4184 10.5146 33.5513 11.8876L33.6129 12.5428L33.7286 13.9458C33.8365 15.3995 33.9166 16.9844 33.9166 18.4998C33.9166 20.0153 33.8365 21.6001 33.7286 23.0539L33.6129 24.4568L33.5513 25.112C33.4183 26.4853 32.805 27.7676 31.8193 28.733C30.8336 29.6983 29.5389 30.2849 28.1631 30.3892L26.899 30.4863L25.5115 30.5819L24.0284 30.6698L22.4806 30.7438C21.1545 30.8012 19.8273 30.831 18.5 30.8332C17.1726 30.831 15.8455 30.8012 14.5194 30.7438L12.9716 30.6698L11.49 30.5819L10.1025 30.4863L8.83527 30.3892C7.45982 30.2845 6.16541 29.6978 5.18005 28.7325C4.19468 27.7672 3.58157 26.4851 3.44869 25.112L3.38702 24.4568L3.2714 23.0539C3.15397 21.5386 3.09124 20.0196 3.08331 18.4998C3.08331 16.9844 3.16348 15.3995 3.2714 13.9458L3.38702 12.5428L3.44869 11.8876C3.58151 10.5149 4.19441 9.23296 5.17946 8.26765C6.16451 7.30234 7.45855 6.71552 8.83373 6.6105L10.0994 6.51184L11.4869 6.4178L12.97 6.32992L14.5179 6.25592C15.8445 6.19846 17.1721 6.16865 18.5 6.1665ZM18.5 9.24984C17.2281 9.24984 15.9192 9.28375 14.6458 9.33617L13.1381 9.40863L11.6904 9.49342L10.3307 9.58592L9.08502 9.68305C8.43011 9.72889 7.81267 10.0054 7.34241 10.4636C6.87216 10.9217 6.57956 11.5317 6.51661 12.1852C6.33623 14.049 6.16665 16.3693 6.16665 18.4998C6.16665 20.6304 6.33623 22.9506 6.51661 24.8145C6.64765 26.1588 7.71448 27.2041 9.08502 27.3166L10.3307 27.4122L11.6904 27.5047L13.1381 27.591L14.6458 27.6635C15.9192 27.7159 17.2281 27.7498 18.5 27.7498C19.7719 27.7498 21.0807 27.7159 22.3541 27.6635L23.8619 27.591L25.3095 27.5063L26.6693 27.4138L27.9149 27.3166C28.5698 27.2708 29.1873 26.9942 29.6575 26.5361C30.1278 26.078 30.4204 25.468 30.4834 24.8145C30.6637 22.9506 30.8333 20.6304 30.8333 18.4998C30.8333 16.3693 30.6637 14.049 30.4834 12.1852C30.4204 11.5317 30.1278 10.9217 29.6575 10.4636C29.1873 10.0054 28.5698 9.72889 27.9149 9.68305L26.6693 9.58746L25.3095 9.49496L23.8619 9.40863L22.3541 9.33617C21.0702 9.28106 19.7852 9.25228 18.5 9.24984ZM15.4166 14.7613C15.4165 14.6106 15.4533 14.4622 15.5236 14.3289C15.5939 14.1957 15.6957 14.0816 15.8202 13.9967C15.9446 13.9117 16.088 13.8585 16.2377 13.8415C16.3874 13.8246 16.539 13.8445 16.6793 13.8995L16.8041 13.9612L23.2791 17.6982C23.4081 17.7726 23.5172 17.877 23.5971 18.0026C23.6771 18.1281 23.7255 18.2711 23.7384 18.4194C23.7513 18.5677 23.7281 18.717 23.671 18.8544C23.6139 18.9919 23.5244 19.1135 23.4102 19.209L23.2791 19.3015L16.8041 23.04C16.6737 23.1156 16.5267 23.1581 16.376 23.1639C16.2253 23.1697 16.0755 23.1385 15.9397 23.0732C15.8038 23.0078 15.6859 22.9102 15.5964 22.7889C15.5069 22.6676 15.4483 22.5262 15.4259 22.3771L15.4166 22.2384V14.7613Z" fill="#005C85"/>
</svg>
