<svg width="34" height="25" viewBox="0 0 34 25" fill="none" xmlns="http://www.w3.org/2000/svg">
<circle cx="21.5" cy="12.5" r="11.5" stroke="white" stroke-width="2"/>
<path d="M19.2809 6.46022C19.3355 6.45836 19.3901 6.4565 19.4463 6.45459C19.7866 6.49694 20.021 6.70913 20.2532 6.94725C20.2931 6.98718 20.2931 6.98718 20.3337 7.02793C20.4207 7.11522 20.5071 7.20302 20.5935 7.29083C20.6544 7.35217 20.7154 7.41347 20.7764 7.47473C20.9365 7.6357 21.0962 7.79709 21.2558 7.95859C21.5108 8.2166 21.7665 8.47399 22.0223 8.73134C22.111 8.82072 22.1995 8.9103 22.2879 8.99991C22.5346 9.24915 22.7821 9.49372 23.0492 9.72136C23.2566 9.90374 23.45 10.1013 23.6458 10.2961C23.7154 10.3653 23.7154 10.3653 23.7864 10.4359C23.8839 10.5329 23.9813 10.63 24.0787 10.7272C24.2028 10.8511 24.3274 10.9745 24.4521 11.0978C24.5721 11.2165 24.6915 11.3359 24.811 11.4551C24.8777 11.5209 24.8777 11.5209 24.9458 11.5881C25.262 11.9054 25.5108 12.1639 25.514 12.6343C25.5157 12.6906 25.5173 12.7469 25.519 12.8048C25.4241 13.2876 25.0061 13.6353 24.6692 13.9677C24.6193 14.0175 24.5694 14.0673 24.5195 14.1171C24.4155 14.2209 24.3113 14.3244 24.2069 14.4277C24.0741 14.5591 23.9417 14.691 23.8094 14.823C23.6819 14.9503 23.5541 15.0773 23.4263 15.2044C23.4025 15.2281 23.3787 15.2518 23.3542 15.2763C22.9305 15.6978 22.9305 15.6978 22.7029 15.8922C22.4514 16.1085 22.221 16.346 21.9883 16.5819C21.9043 16.667 21.8202 16.7518 21.7361 16.8365C21.497 17.0772 21.2582 17.3181 21.0199 17.5595C20.8734 17.7079 20.7266 17.8558 20.5795 18.0036C20.5238 18.0597 20.4683 18.1159 20.4129 18.1722C20.3355 18.251 20.2576 18.3293 20.1796 18.4074C20.1355 18.452 20.0915 18.4965 20.0461 18.5424C19.7519 18.7972 19.5034 18.8325 19.1257 18.8226C18.8416 18.791 18.6721 18.6721 18.4823 18.4604C18.2791 18.176 18.2167 17.91 18.2741 17.5624C18.3943 17.2495 18.5779 17.0318 18.815 16.8001C18.866 16.7491 18.866 16.7491 18.918 16.697C19.0294 16.5857 19.1415 16.4751 19.2537 16.3646C19.3314 16.2872 19.4092 16.2097 19.4869 16.1322C19.6908 15.9291 19.8953 15.7265 20.0999 15.5241C20.3089 15.3172 20.5173 15.1097 20.7257 14.9022C21.1343 14.4958 21.5435 14.09 21.9531 13.6846C21.9082 13.6846 21.8634 13.6846 21.8172 13.6846C19.1593 13.685 16.5015 13.6839 13.8437 13.6808C13.5247 13.6804 13.2056 13.6801 12.8865 13.6797C12.823 13.6796 12.7595 13.6796 12.6941 13.6795C11.6653 13.6784 10.6365 13.6783 9.60771 13.6787C8.55226 13.679 7.49682 13.6782 6.44137 13.6763C5.78998 13.6752 5.1386 13.6749 4.48721 13.6758C4.04067 13.6764 3.59413 13.6758 3.14759 13.6744C2.88986 13.6736 2.63216 13.6733 2.37444 13.6743C2.13843 13.6751 1.90247 13.6747 1.66646 13.6731C1.58114 13.6728 1.49582 13.673 1.4105 13.6737C0.953462 13.6773 0.573916 13.6766 0.227233 13.3366C-0.000693365 13.0697 -0.00773954 12.81 0.00292875 12.4642C0.0410971 12.2066 0.136654 12.0228 0.326665 11.8451C0.579825 11.6777 0.739713 11.6213 1.04981 11.621C1.08614 11.6207 1.12247 11.6203 1.15989 11.62C1.28139 11.6192 1.40284 11.6198 1.52434 11.6204C1.61241 11.6201 1.70048 11.6197 1.78855 11.6193C2.03037 11.6183 2.27218 11.6185 2.51401 11.6189C2.77485 11.6192 3.0357 11.6183 3.29654 11.6175C3.74841 11.6164 4.20027 11.6159 4.65215 11.616C5.30547 11.6161 5.9588 11.6151 6.61213 11.6138C7.6721 11.6117 8.73207 11.6106 9.79205 11.61C10.8217 11.6094 11.8514 11.6084 12.8811 11.6068C12.9446 11.6067 13.008 11.6066 13.0734 11.6065C13.3918 11.606 13.7102 11.6055 14.0286 11.605C16.6701 11.6009 19.3116 11.5982 21.9531 11.5965C21.9092 11.553 21.8653 11.5096 21.8201 11.4648C21.4062 11.055 20.9929 10.6447 20.5801 10.2338C20.3679 10.0226 20.1555 9.81162 19.9426 9.60103C19.7372 9.39774 19.5322 9.19396 19.3276 8.98985C19.2495 8.91211 19.1712 8.83455 19.0927 8.75717C18.9828 8.64864 18.8734 8.5395 18.7642 8.4302C18.7317 8.39845 18.6993 8.36669 18.6658 8.33397C18.4195 8.08536 18.253 7.83727 18.2524 7.47318C18.2633 7.17387 18.3505 6.95153 18.5584 6.73463C18.7934 6.52506 18.9626 6.46725 19.2809 6.46022Z" fill="white"/>
</svg>
